<svg xmlns="http://www.w3.org/2000/svg" width="64.624" height="111.93" viewBox="0 0 64.624 111.93">
  <g id="Symbols" transform="translate(0 -0.354)">
    <g id="Global_Nav-One-Colour" data-name="Global/Nav-One-Colour" transform="translate(-553 -1)">
      <g id="Navigation-">
        <g id="Logo" transform="translate(553)">
          <path id="Fill-1" d="M5.795,113.139v-5.051c0-.565.02-.91.053-1.445H5.826c-.177.43-.366.8-.554,1.193l-1.486,3.158H2.978l-1.472-3.158c-.177-.4-.366-.795-.554-1.193H.932c.02.535.042.869.042,1.445v5.051H.022v-7.771H1.287l1.611,3.5c.156.334.313.711.459,1.044h.022c.146-.346.324-.721.481-1.066l1.632-3.482H6.747v7.771Z" fill-rule="evenodd"/>
          <path id="Fill-3" d="M11.4,107.448a9.588,9.588,0,0,1-.314-1.274h-.1a11.372,11.372,0,0,1-.314,1.274l-.742,2.27h2.207Zm1.831,5.69-.806-2.541H9.644l-.827,2.541H7.844l2.542-7.771h1.328l2.542,7.771Z" fill-rule="evenodd"/>
          <path id="Fill-5" d="M19.433,113.139l-2.74-5.576c-.19-.385-.429-.857-.628-1.318h-.022c.032.514.053,1.079.053,1.62v5.274h-.9v-7.771h1.38l2.71,5.428c.188.376.439.909.627,1.328h.022c-.042-.617-.053-1.224-.053-1.706v-5.05H20.8v7.771Z" fill-rule="evenodd"/>
          <path id="Fill-7" d="M25.248,113.284c-1.778,0-3.138-.658-3.138-3.388v-1.287c0-2.73,1.36-3.366,3.138-3.366a11.853,11.853,0,0,1,1.8.176v.784c-.481-.042-1.223-.1-1.8-.1-1.464,0-2.176.6-2.176,2.51V109.9c0,1.913.712,2.52,2.176,2.52.575,0,1.318-.053,1.8-.093v.784a11.828,11.828,0,0,1-1.8.177" fill-rule="evenodd"/>
          <path id="Fill-9" d="M33.05,113.139v-3.672h-3.89v3.672H28.2v-7.771h.962v3.23h3.89v-3.23h.963v7.771Z" fill-rule="evenodd"/>
          <path id="Fill-11" d="M35.581,113.139v-7.771h4.6v.856H36.544v2.447h3.418v.87H36.544v2.75h3.637v.848Z" fill-rule="evenodd"/>
          <path id="Fill-13" d="M49.867,106.224v6.914h-.961v-6.914h-2.4v-.858h5.752v.858Z" fill-rule="evenodd"/>
          <path id="Fill-15" d="M53.151,113.139v-7.771h4.6v.856h-3.64v2.447h3.421v.87H54.112v2.75h3.64v.848Z" fill-rule="evenodd"/>
          <g id="Group-19" transform="translate(58.229 105.159)">
            <path id="Fill-17" d="M2.662,1.064H1.793V4.108h.9c1.518,0,2.24-.3,2.24-1.527C4.931,1.285,4.166,1.064,2.662,1.064ZM5.255,7.979,3.424,4.945c-.209.009-.5.009-.733.009h-.9V7.979H.83V.207H2.662C4.46.207,5.9.585,5.9,2.581A2.023,2.023,0,0,1,4.448,4.748L6.4,7.979Z" fill-rule="evenodd"/>
          </g>
          <path id="Fill-20" d="M44.585,109.006l-1.336-.585c-.829-.367-1.048-.7-1.048-1.3,0-.805.576-1.047,1.6-1.047.608,0,1.305.055,1.8.1v-.792a12.1,12.1,0,0,0-1.832-.146c-1.7,0-2.54.605-2.54,1.881a2.164,2.164,0,0,0,1.6,2.1l1.33.6c.825.374,1.055.731,1.055,1.349,0,.908-.532,1.274-1.59,1.274a18.626,18.626,0,0,1-2.217-.136v.753a11.327,11.327,0,0,0,2.217.22c1.717,0,2.573-.763,2.573-2.111a2.193,2.193,0,0,0-1.61-2.167" fill-rule="evenodd"/>
          <path id="Fill-22" d="M4.161,101.807a8.584,8.584,0,0,1-3.968-.943c-.106-.055-.156-.087-.156-.215l-.02-1.7c0-.107.069-.268.2-.215a7.957,7.957,0,0,0,3.33.9c1.552.068,3.232-.345,3.232-1.938C6.775,94.546,0,95.278,0,90.518c0-3.319,3.135-3.9,5.767-3.9a9.873,9.873,0,0,1,3.511.748l.137.173v.042l-.234,1.659-.154.127H8.988a10.08,10.08,0,0,0-2.735-.618c-1.506-.069-2.982.238-2.982,1.618,0,2.477,6.8,2.176,6.8,6.764,0,3.619-2.73,4.676-5.9,4.676" fill-rule="evenodd"/>
          <path id="Fill-24" d="M18.359,95.731c0-.13-.039-.172-.194-.172H16.695c-1.529,0-2.343.409-2.343,1.895,0,1.594.833,2.088,2.343,2.088h1.452c.173,0,.213-.062.213-.214Zm3.175,5.278a.263.263,0,0,1-.231.3,39.126,39.126,0,0,1-4.956.473c-3.059,0-5.246-.928-5.246-4.224,0-3.231,2.129-4.006,4.587-4.006a23.921,23.921,0,0,1,2.632.236c0-1.938-.677-2.715-2.9-2.715-.735,0-1.741.088-2.576.153h-.056c-.137,0-.175-.065-.214-.2L12.4,89.483V89.44l.154-.173a36.354,36.354,0,0,1,3.931-.257c3.078,0,5.052,1.227,5.052,4.673Z" fill-rule="evenodd"/>
          <path id="Fill-26" d="M26.4,101.525H23.558c-.138,0-.176-.064-.176-.213V85.194a.211.211,0,0,1,.176-.236l2.825-.215a.188.188,0,0,1,.213.215v16.354c0,.149-.038.213-.194.213" fill-rule="evenodd"/>
          <path id="Fill-28" d="M40.325,90.969c-1.839,0-2.5,1.208-2.5,4.5,0,3.123.716,4.286,2.5,4.286,1.82,0,2.478-1.205,2.478-4.286,0-3.319-.658-4.5-2.478-4.5m0,10.794c-3.6,0-5.729-2.112-5.729-6.269,0-4.524,2.265-6.464,5.729-6.464s5.712,1.9,5.712,6.464c0,4.137-2.11,6.269-5.712,6.269" fill-rule="evenodd"/>
          <path id="Fill-30" d="M60.771,91.229c-.52-.043-.986-.088-1.564-.088-1.824,0-2.808,1.248-2.808,4.2,0,2.928,1.083,4.2,3,4.2a8.817,8.817,0,0,0,1.373-.129l.157-.237V91.466a.216.216,0,0,0-.157-.237m3.12,10.06a25.094,25.094,0,0,1-4.493.495c-3.659,0-6.291-1.679-6.291-6.612,0-4.741,2.458-6.185,5.208-6.185.792,0,2.052.172,2.478.215h.039l.134-.173V85.261a.272.272,0,0,1,.214-.282l2.729-.214a.268.268,0,0,1,.232.279v15.9a.306.306,0,0,1-.249.344" fill-rule="evenodd"/>
          <path id="Fill-32" d="M52.91,91.12c-.83.022-1.449.087-2.322.15l-.175.195v9.824c0,.174-.057.238-.191.238H47.395c-.116,0-.195-.064-.195-.215V89.891a.254.254,0,0,1,.195-.278c1.316-.195,4.007-.432,5.555-.5.118,0,.176.085.176.215v1.592a.194.194,0,0,1-.215.195" fill-rule="evenodd"/>
          <path id="Fill-34" d="M35.151,82.537a4.26,4.26,0,0,1-1.969-.468l-.076-.107-.009-.845.095-.106a3.978,3.978,0,0,0,1.651.447c.691.034,1.945-.069,1.945-.965,0-1.771-3.7-1.194-3.7-3.556,0-1.647,1.556-1.934,2.863-1.934a4.283,4.283,0,0,1,1.606.3l.069.087v.02l-.118.823-.074.064a4.813,4.813,0,0,0-1.232-.255c-.812-.061-1.912.028-1.923.823-.023,1.384,3.7,1.079,3.7,3.356,0,1.794-1.25,2.32-2.825,2.32" fill-rule="evenodd"/>
          <path id="Fill-36" d="M6.206,79.246c0,2.165-1.239,3.3-3.093,3.3C1.238,82.546.022,81.4.022,79.272V73.819l.116-.141h1l.1.141v5.31c0,1.638.6,2.271,1.9,2.271,1.2,0,1.842-.646,1.842-2.256V73.819l.115-.141h1l.129.127Z" fill-rule="evenodd"/>
          <path id="Fill-38" d="M13.069,82.441H12.063l-.106-.129v-4.4c0-1.415-.636-1.817-1.888-1.817-.394,0-.972.053-1.343.091l-.1.13v5.992l-.115.129H7.5l-.115-.129v-6.83l.126-.154a18.918,18.918,0,0,1,2.607-.3c1.9,0,3.056.618,3.056,2.8v4.484l-.1.129" fill-rule="evenodd"/>
          <path id="Fill-40" d="M15.572,82.441H14.565l-.106-.129v-7.1l.115-.129h.986l.115.115v7.115Zm.1-8.4-.1.13H14.565l-.106-.144V72.971l.106-.127h1.007l.1.127Z" fill-rule="evenodd"/>
          <path id="Fill-42" d="M22.3,75.083h-1l-.117.089-1.615,6.109-.076.084-.072-.07-1.56-6.11-.117-.1H16.658l-.116.064.012.038,2.108,7.128.127.129h1.343l.161-.141,2.087-7.1.008-.051Z" fill-rule="evenodd"/>
          <path id="Fill-44" d="M25.619,76.062c-1.135,0-1.865.7-1.865,2.127l.106.129h3.589l.127-.115c-.034-1.444-.8-2.141-1.957-2.141m3.092,3.274h-4.84l-.1.131c.046,1.621,1.03,1.982,2.455,1.982.534,0,1.124-.051,1.748-.1l.1.091v.024l-.1.785-.139.116a12.642,12.642,0,0,1-2,.167c-1.981,0-3.312-.913-3.312-3.788,0-2.771,1.435-3.712,3.173-3.712,2.119,0,3.127,1.315,3.127,4.175l-.1.13" fill-rule="evenodd"/>
          <path id="Fill-46" d="M40.136,82.441H39.129l-.106-.129v-7.1l.117-.129h.983l.118.115v7.115Zm.106-8.4-.106.13H39.129l-.106-.144V72.971l.106-.127h1.006l.106.127Z" fill-rule="evenodd"/>
          <path id="Fill-48" d="M45.153,82.274l-.139.115a8.608,8.608,0,0,1-1.193.118c-1.1,0-1.587-.543-1.587-1.843V76.09l-.117-.133H41.33l-.117-.139V75.2l.117-.115h.8l.1-.131V73.267l.117-.154.984-.118.126.129v1.828l.118.131h1.249l.117.129v.619l-.117.117H43.578l-.118.144v4.225c0,.747.1,1.058.974,1.058h.706l.116.129Z" fill-rule="evenodd"/>
          <path id="Fill-50" d="M32.415,76.1c-.509,0-.891.039-1.389.08l-.126.127v6l-.106.129H29.788l-.1-.129V75.487l.114-.167a24.523,24.523,0,0,1,2.627-.3l.106.13V76l-.116.1" fill-rule="evenodd"/>
          <path id="Fill-52" d="M51.774,75.083H50.745l-.118.089L49.1,81.281l-.07.088-.092-.1-1.739-6.1-.127-.089H45.993l-.108.07.005.031L47.9,81.993a.668.668,0,0,0,.55.447h.031l.088.118a1.065,1.065,0,0,1-.084.283,7.143,7.143,0,0,1-1.3,1.919l-.024.066.092.089h1.09l.161-.089a10.134,10.134,0,0,0,1.9-4l1.458-5.646v-.012l-.081-.089" fill-rule="evenodd"/>
          <path id="Fill-54" d="M33.989,84.34A4.729,4.729,0,0,0,29.5,88.988c-.019.171-.1.237-.233.237H27.933c-.135,0-.175.064-.175.215v1.485c0,.152.039.215.194.215l1.239-.02c.156,0,.194.108.194.259v9.888c0,.172.077.259.213.259H32.4c.137,0,.192-.087.192-.259V91.379c0-.172.06-.238.194-.238h1.568c.135,0,.195-.084.195-.215V89.44a.19.19,0,0,0-.213-.215H32.735c-.176,0-.194-.066-.194-.237a3.641,3.641,0,0,1,2.172-3l.057-.031.028-.02.03-.026h0l.014-.019.011-.02,0-.007-.02-.14-.019-.047-.586-1.171-.241-.168" fill-rule="evenodd"/>
          <path id="Fill-56" d="M56.981,76.027c-1.155,0-2.1.692-2.1,2.807,0,1.849.865,2.633,2.123,2.633s2.134-.81,2.134-2.633c0-2.127-.967-2.807-2.157-2.807m0,6.528c-1.716,0-3.334-1.205-3.334-3.721,0-2.615,1.443-3.821,3.346-3.821s3.357,1.181,3.357,3.821c0,2.489-1.561,3.721-3.369,3.721" fill-rule="evenodd"/>
          <path id="Fill-58" d="M63.844,72.6a2.645,2.645,0,0,0-2.293,2.341l-.139.14H60.62l-.1.131v.616l.114.129h.737l.115.154v6.172l.126.156h1l.114-.156v-6.2l.114-.14h1.193l.115-.127v-.605l-.127-.131H62.828l-.1-.14a2.233,2.233,0,0,1,1.434-1.708l.018-.112-.237-.477-.095-.045" fill-rule="evenodd"/>
          <path id="Fill-60" d="M36.369,62.311a5.223,5.223,0,0,0-.852-.85,5.223,5.223,0,0,1,.852.85" fill-rule="evenodd"/>
          <path id="Fill-62" d="M33.127,60.412c.153.024.3.056.451.092-.148-.037-.3-.068-.451-.092" fill-rule="evenodd"/>
          <path id="Fill-64" d="M36.462,62.435c.093.126.181.256.263.39-.081-.134-.169-.264-.263-.39" fill-rule="evenodd"/>
          <path id="Fill-66" d="M34.87,61.022a5.251,5.251,0,0,0-1.119-.474,5.251,5.251,0,0,1,1.119.474" fill-rule="evenodd"/>
          <path id="Fill-68" d="M32.945,60.384a4.916,4.916,0,0,0-.635-.043,5.14,5.14,0,0,0-3.289,1.182,5.143,5.143,0,0,1,3.289-1.182,4.916,4.916,0,0,1,.635.043" fill-rule="evenodd"/>
          <path id="Fill-70" d="M35.392,61.366c-.125-.092-.253-.18-.386-.261.133.081.261.169.386.261" fill-rule="evenodd"/>
          <path id="Fill-72" d="M37.012,52.618a1.835,1.835,0,0,0-.649-.2,2.625,2.625,0,0,0-.65.023,6.841,6.841,0,0,0-1.19.338,6.688,6.688,0,0,1-2.211.561,6.687,6.687,0,0,1-2.213-.561,6.974,6.974,0,0,0-1.192-.34,2.026,2.026,0,0,0-1.3.183,1.7,1.7,0,0,0-.822,1.022,1.655,1.655,0,0,0,.15,1.269A5.269,5.269,0,0,0,28.73,56.52l-.012-.009.012.008c.237.16.5.339.771.557h0a8.5,8.5,0,0,1-.93-1.053c-.338-.488-.665-1.722.466-1.449s1.311.706,3.276.706,2.146-.429,3.274-.7.8.96.466,1.448a8.484,8.484,0,0,1-.929,1.052h0c.274-.217.531-.4.768-.557h0a5.234,5.234,0,0,0,1.793-1.61,1.683,1.683,0,0,0-.677-2.289" fill-rule="evenodd"/>
          <path id="Fill-74" d="M32.311,60.342c.164,0,.324.018.485.031-.011-.462-.014-.925-.047-1.388a15.42,15.42,0,0,0-.3-2.179,15.176,15.176,0,0,0-.329,2.175c-.041.458-.049.915-.066,1.373l.253-.012" fill-rule="evenodd"/>
          <path id="Fill-76" d="M43.1,50.424c-1.056,1.85-2.209,3.629-3.4,5.379a3.34,3.34,0,0,0-.467.516,7.234,7.234,0,0,0-.683,1.147c-.173.245-.343.492-.516.737Q37.017,59.613,35.968,61l-.284-.129-.268-.292q.967-1.432,1.965-2.841l.134-.184a7.1,7.1,0,0,0,1.395-1.465,3.273,3.273,0,0,0,.528-1.133c1.17-1.545,2.375-3.066,3.663-4.528-1.461.955-2.9,1.942-4.332,2.937a3.043,3.043,0,0,1,.1.367,2.644,2.644,0,0,1-.475,1.981,6.835,6.835,0,0,1-1.832,1.75,6.212,6.212,0,0,0-1.63,1.526,1.722,1.722,0,0,0,.087,2.125,5.287,5.287,0,0,1,.634.462,1.7,1.7,0,0,0,2.061-.566,6.142,6.142,0,0,0,.947-2.023,6.9,6.9,0,0,1,1.1-2.285A2.655,2.655,0,0,1,41.6,55.619c.519-1.724,1.031-3.45,1.5-5.192Z" fill-rule="evenodd"/>
          <path id="Fill-78" d="M27.434,61.479a1.707,1.707,0,0,0,1.533.089,5.092,5.092,0,0,1,.647-.463,1.722,1.722,0,0,0,.084-2.119,6.269,6.269,0,0,0-1.629-1.526,6.787,6.787,0,0,1-1.833-1.751,2.641,2.641,0,0,1-.477-1.98,2.785,2.785,0,0,1,.1-.37c-1.433-.994-2.871-1.98-4.332-2.934h0c1.29,1.462,2.5,2.985,3.667,4.532a3.3,3.3,0,0,0,.527,1.131A7.1,7.1,0,0,0,27.1,57.545l.139.191q1,1.408,1.965,2.84l-.269.292L28.653,61Q27.6,59.611,26.589,58.2c-.172-.242-.34-.486-.51-.73a7.23,7.23,0,0,0-.687-1.154,3.386,3.386,0,0,0-.471-.52c-1.193-1.75-2.344-3.529-3.4-5.376h0c.471,1.741.984,3.471,1.5,5.2a2.655,2.655,0,0,1,1.04.345,2.606,2.606,0,0,1,.806.733,6.874,6.874,0,0,1,1.1,2.285,6.15,6.15,0,0,0,.945,2.023,1.658,1.658,0,0,0,.52.474" fill-rule="evenodd"/>
          <path id="Fill-80" d="M55.732,14.88l-2.539,5.479a49.36,49.36,0,0,0-12.177-3.82l1.05-5.95a56.264,56.264,0,0,0-9.754-.85H32.3c-1.506,0-3.028.061-4.524.181l.485,6.022a49.533,49.533,0,0,0-12.481,2.646l-2.005-5.7a55.506,55.506,0,0,0-7.83,3.464v6.171c0,1.142.05,2.249.123,3.342l4.492-2.718a2.1,2.1,0,0,1,1.1-.3,2.651,2.651,0,0,1,1.775.743l-1.465.554-.309-.049a.876.876,0,0,0-.454.119L6.185,27.255c.1,1.091.233,2.167.4,3.209l6.147-3.719.249-.263,1.437-.543-.028.349a2.2,2.2,0,0,1-1.013,1.523l-6.315,3.82-.234.1a46.245,46.245,0,0,0,8.251,18.709q.78.242,1.568.47l-.023.034.029-.03-.005,0L7.879,33.789,22.192,46.644a28.323,28.323,0,0,1-1.383-9.521c-.005-3.328.919-6.975-1.4-9.514,3.426,2.164,3.6,5.434,4.714,8.388a28.236,28.236,0,0,0,4.694,8.393l-.024.01.026-.006v0l3.5-18.918,3.5,18.918A28.256,28.256,0,0,1,40.524,36c2.027-2.642,4.983-4.966,4.692-8.395,1.4,3.805-.458,6.5-1.383,9.521a28.257,28.257,0,0,0-1.4,9.514l-.007,0,.005,0h0L56.744,33.789,47.973,50.913l-.005,0,.027.03-.022-.034c.687-.406,1.379-.8,2.085-1.184a46.153,46.153,0,0,0,7.713-17.9,2.1,2.1,0,0,1-.451-.195L51,27.813a2.2,2.2,0,0,1-1.01-1.523l-.031-.349,1.422.538.264.268,6.316,3.82.05.02c.172-1.037.3-2.107.41-3.2l-5.247-3.173a.873.873,0,0,0-.454-.119l-.309.049-1.464-.554a2.648,2.648,0,0,1,1.774-.743,2.094,2.094,0,0,1,1.1.3L58.541,26c.079-1.136.134-2.289.134-3.478V16.354C57.708,15.836,56.728,15.341,55.732,14.88ZM36.777,18.391l.33.027L44.394,19.6A2.2,2.2,0,0,1,45.9,20.629a2.82,2.82,0,0,1,.4,1.208l-1.469-.555a.969.969,0,0,0-.639-.456l-7.285-1.178a.926.926,0,0,0-.676.181h-1.6A2.478,2.478,0,0,1,36.777,18.391ZM18.483,20.629A2.2,2.2,0,0,1,19.992,19.6l7.287-1.178.33-.027a2.475,2.475,0,0,1,2.141,1.438H28.157a.933.933,0,0,0-.68-.181l-7.287,1.178a.963.963,0,0,0-.639.456l-1.469.555A2.82,2.82,0,0,1,18.483,20.629Zm-6.134,5.719-.222.046c-.3,0-.428-.271-.6-.718-.2-.538-.292-.875.169-1.049L20.231,21.4l.222-.047c.3,0,.428.272.6.718.191.506.29.877-.169,1.049Zm15.8-2.554-7.287,1.179-.33.026a2.3,2.3,0,0,1-1.645-.745l1.418-.536.233.035.126-.011,7.287-1.178a.874.874,0,0,0,.391-.191h1.511A2.276,2.276,0,0,1,28.148,23.794Zm-.516-1.773c-.492,0-.53-.382-.53-.921s.038-.921.53-.921h9.122c.494,0,.529.348.529.921,0,.539-.037.921-.529.921Zm15.892,2.951-7.287-1.178a2.2,2.2,0,0,1-1.508-1.033,2.868,2.868,0,0,1-.194-.387h1.49a.872.872,0,0,0,.412.191l7.287,1.178.127.011.233-.035,1.407.531A2.255,2.255,0,0,1,43.524,24.972Zm9.162-.345c.462.175.372.512.168,1.051-.168.445-.292.716-.594.716l-.223-.046-8.531-3.226c-.46-.173-.361-.543-.169-1.048.169-.447.292-.719.6-.719l.222.047Z" fill-rule="evenodd"/>
          <path id="Fill-82" d="M44.518,56.246a3.3,3.3,0,0,0-5.287.073,7.51,7.51,0,0,0-1.189,2.474,5.605,5.605,0,0,1-.853,1.835,1.078,1.078,0,1,1-1.744-1.266,5.618,5.618,0,0,1,1.483-1.377,7.5,7.5,0,0,0,1.981-1.9,3.3,3.3,0,0,0-.733-4.612l-.269-.176a3.344,3.344,0,0,0-.592-.274,15.317,15.317,0,0,0-10,0,3.286,3.286,0,0,0-2.186,2.6,3.28,3.28,0,0,0,.588,2.458,7.545,7.545,0,0,0,1.984,1.9,5.57,5.57,0,0,1,1.48,1.377,1.076,1.076,0,0,1-.24,1.5,1.1,1.1,0,0,1-1.5-.238,5.611,5.611,0,0,1-.852-1.835,7.533,7.533,0,0,0-1.19-2.474,3.268,3.268,0,0,0-1-.91,3.305,3.305,0,0,0-3.61.177,3.256,3.256,0,0,0-.676.661l-.022.031c.154.154.307.31.46.46l.07-.1a2.7,2.7,0,0,1,.544-.531,2.657,2.657,0,0,1,2.907-.142,2.594,2.594,0,0,1,.807.733,6.867,6.867,0,0,1,1.1,2.285,6.2,6.2,0,0,0,.945,2.026,1.7,1.7,0,0,0,2.053.563,5.383,5.383,0,0,1,.647-.466,1.72,1.72,0,0,0,.084-2.119,6.229,6.229,0,0,0-1.629-1.526,6.806,6.806,0,0,1-1.833-1.751,2.657,2.657,0,0,1,1.286-4.077,14.675,14.675,0,0,1,9.583,0,2.572,2.572,0,0,1,.695.36,2.659,2.659,0,0,1,.589,3.716,6.856,6.856,0,0,1-1.832,1.75,6.229,6.229,0,0,0-1.63,1.525,1.722,1.722,0,0,0,.087,2.125,5.316,5.316,0,0,1,.634.465,1.71,1.71,0,0,0,2.061-.566,6.151,6.151,0,0,0,.947-2.026,6.92,6.92,0,0,1,1.1-2.285,2.656,2.656,0,0,1,4.257-.061l.072.1c.153-.15.306-.306.46-.46l-.023-.033" fill-rule="evenodd"/>
          <path id="Fill-84" d="M24.432,59.034a8.688,8.688,0,0,1,.716,1.208c-.123-.329-.213-.631-.294-.9v0a5.288,5.288,0,0,0-.982-2.2,1.657,1.657,0,0,0-1.163-.528,1.7,1.7,0,0,0-1.224.47l-.257.322c.573.546,1.142,1.067,1.7,1.555.137-1.029,1.155-.376,1.5.081" fill-rule="evenodd"/>
          <path id="Fill-86" d="M43.123,57.057a1.71,1.71,0,0,0-1.225-.465,1.66,1.66,0,0,0-1.163.535,5.275,5.275,0,0,0-.974,2.2l.005-.014,0,.012c-.081.276-.171.578-.291.906a8.521,8.521,0,0,1,.712-1.211c.352-.46,1.381-1.12,1.506-.065.559-.489,1.129-1.011,1.7-1.557a1.574,1.574,0,0,0-.27-.344" fill-rule="evenodd"/>
          <path id="Fill-88" d="M29.2,62.4a1.029,1.029,0,1,1,1.457,1.454,1.021,1.021,0,0,1-.72.3c.6.368,1.09.654,1.477.871a1,1,0,0,1,1.792,0c.387-.217.879-.5,1.476-.871a1.013,1.013,0,0,1-.719-.3,1.031,1.031,0,1,1,1.651-.292c.286-.184.584-.385.9-.6a4.879,4.879,0,0,0-4.2-2.375,4.885,4.885,0,0,0-3.479,1.442,4.99,4.99,0,0,0-.718.939c.31.21.608.409.891.593A1.023,1.023,0,0,1,29.2,62.4m3.109-1.288a1.03,1.03,0,1,1-1.03,1.031,1.033,1.033,0,0,1,1.03-1.031" fill-rule="evenodd"/>
          <path id="Fill-90" d="M35.183,60.608a5.664,5.664,0,0,0-7.705,1.923l.421.294a5.16,5.16,0,0,1,8.825,0l.414-.288a5.707,5.707,0,0,0-1.955-1.928" fill-rule="evenodd"/>
          <g id="Group-94" transform="translate(4.063 0.889)">
            <path id="Fill-92" d="M54.612,1.275V21.638c0,30.081-26.363,42.988-26.363,42.988S1.885,51.719,1.885,21.638V1.275Zm.811-.81H1.077V21.638A47.382,47.382,0,0,0,5.268,41.38a49.894,49.894,0,0,0,9.211,13.588A51.7,51.7,0,0,0,27.893,65.353l.356.175.355-.175A51.7,51.7,0,0,0,42.018,54.968,49.867,49.867,0,0,0,51.229,41.38a47.363,47.363,0,0,0,4.194-19.742V.465Z" fill-rule="evenodd"/>
          </g>
        </g>
      </g>
    </g>
  </g>
</svg>
