<?xml version="1.0" encoding="iso-8859-1"?>
<!-- Generator: Adobe Illustrator 19.0.0, SVG Export Plug-In . SVG Version: 6.00 Build 0)  -->
<svg version="1.1" id="Layer_1" xmlns="http://www.w3.org/2000/svg" xmlns:xlink="http://www.w3.org/1999/xlink" x="0px" y="0px"
	 viewBox="0 0 512.001 512.001" style="enable-background:new 0 0 512.001 512.001;" xml:space="preserve">
<path d="M0,256c0,141.385,114.615,256,256,256s256-114.615,256-256S397.385,0,256,0C114.655-0.04,0.04,114.511,0,255.856
	C0,255.904,0,255.953,0,256z"/>
<circle style="fill:#939393;" cx="185.757" cy="107.842" r="31.999"/>
<g>
	<path style="fill:#E21B1B;" d="M153.281,147.201c0,0-32.48,0.48-32.48,30.24v36.8h63.36L153.281,147.201z"/>
	<path style="fill:#E21B1B;" d="M250.56,214.241v-36.8c0-29.92-32.48-30.24-32.48-30.24l-30.88,67.04H250.56z"/>
</g>
<polygon style="fill:#FFFFFF;" points="185.761,147.201 163.52,147.201 185.761,196.48 208,147.201 "/>
<circle style="fill:#939393;" cx="345.761" cy="267.846" r="31.999"/>
<g>
	<path style="fill:#E21B1B;" d="M313.281,307.201c0,0-32.48,0.48-32.48,30.24v36.8h63.36L313.281,307.201z"/>
	<path style="fill:#E21B1B;" d="M410.56,374.241v-36.8c0-29.92-32.48-30.24-32.48-30.24l-30.88,67.04H410.56z"/>
</g>
<polygon style="fill:#FFFFFF;" points="345.761,307.201 323.52,307.201 345.761,356.48 368,307.201 "/>
<g>
	<path style="fill:#E21B1B;" d="M275.36,133.12v32.64l5.92,1.6c24.263,6.566,44.96,22.434,57.6,44.16l2.24,4h35.52l-5.6-11.52
		c-16.823-34.57-48.324-59.724-85.76-68.48L275.36,133.12z"/>
	<path style="fill:#E21B1B;" d="M162.241,238.08h-32.48l-0.8,7.04c-0.639,4.881-0.959,9.798-0.96,14.72
		c0.427,65.981,50.648,120.968,116.32,127.36l8.64,0.8v-32l-7.2-0.8c-48.847-5.021-85.932-46.256-85.76-95.36
		c-0.005-4.285,0.316-8.564,0.96-12.8L162.241,238.08z"/>
</g>
<g>
</g>
<g>
</g>
<g>
</g>
<g>
</g>
<g>
</g>
<g>
</g>
<g>
</g>
<g>
</g>
<g>
</g>
<g>
</g>
<g>
</g>
<g>
</g>
<g>
</g>
<g>
</g>
<g>
</g>
</svg>
