<svg xmlns="http://www.w3.org/2000/svg" xmlns:xlink="http://www.w3.org/1999/xlink" width="360" height="389.6" viewBox="0 0 360 389.6"><defs><clipPath id="a"><rect width="360" height="360" transform="translate(20 20)" fill="#f5f5f8"/></clipPath></defs><g transform="translate(2138 1286)"><g transform="translate(-2158 -1306)"><g transform="translate(0)"><g clip-path="url(#a)"><g transform="translate(40.001 90)"><g transform="translate(0)"><path d="M290.963,248.235a80,80,0,0,0-44.227-31.543L205,205V175a74.877,74.877,0,0,0,29.943-57.7A20,20,0,1,0,235,80.675V75A75,75,0,0,0,160,0h0A75,75,0,0,0,85,75v5.675a20,20,0,1,0,.058,36.622A74.875,74.875,0,0,0,115,175v30L73.263,216.692a80,80,0,0,0-44.227,31.543L0,290.24V320H320V290.24Z" transform="translate(0)" fill="#9c4e2b"/><path d="M26.28,15A74.825,74.825,0,0,1,0,10.254,74.565,74.565,0,0,0,40.28,22a74.7,74.7,0,0,0,31-6.71V0A74.665,74.665,0,0,1,26.28,15Z" transform="translate(133.719 175.001)" fill="#a3420b"/><path d="M14.89,13.918A11.007,11.007,0,0,0,0,.864" transform="translate(72.719 88.001)" fill="none" stroke="#4d2100" stroke-linecap="round" stroke-linejoin="round" stroke-miterlimit="10" stroke-width="2"/><path d="M.391,13.918A11.008,11.008,0,0,1,15.282.864" transform="translate(232 88.001)" fill="none" stroke="#4d2100" stroke-linecap="round" stroke-linejoin="round" stroke-miterlimit="10" stroke-width="2"/></g></g><g transform="translate(160 224.509)"><rect width="80" height="60" fill="none"/><path d="M40,0A20,20,0,0,1,0,0Z" transform="translate(20 9.5)" fill="#fff"/></g><g transform="translate(150 172)"><rect width="100" height="40" fill="none"/><path d="M16,8A8,8,0,1,1,8,0a8,8,0,0,1,8,8" transform="translate(75.001 12)" fill="#48230d"/><path d="M16,8A8,8,0,1,1,8,0a8,8,0,0,1,8,8" transform="translate(9 12)" fill="#48230d"/></g><g transform="translate(183 172)"><rect width="40" height="60" fill="none"/></g></g></g><path d="M4,0l9.761,25.1A8,8,0,0,1,6.3,36H0" transform="translate(197 185.6)" fill="none" stroke="#4d2100" stroke-linecap="round" stroke-linejoin="round" stroke-miterlimit="10" stroke-width="2"/></g><g transform="translate(-2138 -1284.598)"><path d="M155,215V185a74.878,74.878,0,0,0,29.942-57.7,19.944,19.944,0,0,0,19.076-1.613,25,25,0,0,1-1.058,47.013,19.983,19.983,0,0,1-24.721,29.518c.011.263.04.519.04.784a19.955,19.955,0,0,1-8.3,16.2ZM41.721,203c0-.265.029-.52.04-.784A19.988,19.988,0,0,1,17.04,172.7a25,25,0,0,1-1.058-47.014A19.948,19.948,0,0,0,35.059,127.3,74.873,74.873,0,0,0,65,185v30l-14.98,4.2A19.956,19.956,0,0,1,41.721,203ZM157.338,73.282a23,23,0,0,1-31.871-10.949,22.477,22.477,0,0,1-30.934,0A23,23,0,0,1,62.662,73.282,30.025,30.025,0,0,1,43.49,97.691,19.972,19.972,0,0,0,27,89c-.676,0-1.342.036-2,.1V85a85,85,0,0,1,170,0v4.1c-.658-.066-1.324-.1-2-.1a19.975,19.975,0,0,0-16.49,8.691A30.028,30.028,0,0,1,157.338,73.282Z" transform="translate(70 59)"/></g><path d="M320,110.24l-29.036-42a80,80,0,0,0-44.228-31.543L210,26.4V5a5,5,0,0,0-5-5V5a74.665,74.665,0,0,1-45,15A74.665,74.665,0,0,1,115,5V0a5,5,0,0,0-5,5V26.4L73.264,36.692A80,80,0,0,0,29.036,68.235L0,110.239V140H320Z" transform="translate(-2118 -1036.4)" fill="#eaa32a"/></g></svg>