<svg xmlns="http://www.w3.org/2000/svg" xmlns:xlink="http://www.w3.org/1999/xlink" width="180" height="180" viewBox="0 0 180 180"><defs><clipPath id="a"><rect width="180" height="180" fill="#f5f5f8"/></clipPath></defs><g transform="translate(-10 -10)"><g transform="translate(10 10)" clip-path="url(#a)"><g transform="translate(10 35)"><g transform="translate(0)"><path d="M145.482,124.118a40,40,0,0,0-22.114-15.771L102.5,102.5v-15a37.439,37.439,0,0,0,14.972-28.852,10,10,0,1,0,.029-18.311V37.5A37.5,37.5,0,0,0,80,0h0A37.5,37.5,0,0,0,42.5,37.5v2.838a10,10,0,1,0,.029,18.311A37.438,37.438,0,0,0,57.5,87.5v15l-20.868,5.846a40,40,0,0,0-22.114,15.771L0,145.12V160H160V145.12Z" fill="#b5683c"/><path d="M13.14,7.5A37.412,37.412,0,0,1,0,5.127,37.282,37.282,0,0,0,20.14,11a37.348,37.348,0,0,0,15.5-3.355V0A37.333,37.333,0,0,1,13.14,7.5Z" transform="translate(66.86 87.5)" fill="#a3420b"/><path d="M7.445,6.959A5.5,5.5,0,0,0,0,.432" transform="translate(36.359 44)" fill="none" stroke="#00004d" stroke-linecap="round" stroke-linejoin="round" stroke-miterlimit="10" stroke-width="2"/><path d="M.2,6.959A5.5,5.5,0,0,1,7.641.432" transform="translate(116 44)" fill="none" stroke="#00004d" stroke-linecap="round" stroke-linejoin="round" stroke-miterlimit="10" stroke-width="2"/></g></g><g transform="translate(70 102.255)"><rect width="40" height="30" fill="none"/><g transform="translate(7.5 4.75)"><path d="M25,0A12.5,12.5,0,0,1,0,0Z" fill="#ae1328"/><path d="M13.991,2.861A9.984,9.984,0,0,0,0,2.861,12.438,12.438,0,0,0,7,5a12.438,12.438,0,0,0,7-2.139" transform="translate(5.505 7.5)" fill="#fb344f"/><path d="M17.5,4H2.5A2.5,2.5,0,0,1,0,1.5V0H20V1.5A2.5,2.5,0,0,1,17.5,4" transform="translate(2.5)" fill="#fff"/></g></g><g transform="translate(65 76)"><rect width="50" height="20" fill="none"/><path d="M4,5A5.966,5.966,0,0,1,7.417,6.071,4,4,0,1,0,0,4,3.972,3.972,0,0,0,.583,6.071,5.966,5.966,0,0,1,4,5" transform="translate(37.5 6.964)" fill="#00004d"/><path d="M4,5A5.966,5.966,0,0,1,7.417,6.071,4,4,0,1,0,0,4,3.972,3.972,0,0,0,.583,6.071,5.966,5.966,0,0,1,4,5" transform="translate(4.5 6.964)" fill="#00004d"/></g><g transform="translate(81.5 76)"><rect width="20" height="30" fill="none"/><path d="M2,0,7,17,0,18" transform="translate(6.5 6)" fill="none" stroke="#00004d" stroke-linecap="round" stroke-linejoin="round" stroke-miterlimit="10" stroke-width="2"/></g><g transform="translate(38.5 25.563)"><path d="M51.5,37.11,78.076,52.579a21.59,21.59,0,0,1,10.5,19v1c7.731,0,14.427-6.268,14.427-14v-14.3a30.587,30.587,0,0,0-11.877-24.2L75.968,8.357a40,40,0,0,0-48.937,0L11.877,20.075A30.587,30.587,0,0,0,0,44.273v14.3c0,7.732,6.677,14,14.41,14v-1a21.606,21.606,0,0,1,10.514-19Z" transform="translate(0 0)" fill="#f5f5f8"/><path d="M0,17.1,29.386,0" transform="translate(51.5 20.006)" fill="none" stroke="#00004d" stroke-linecap="round" stroke-linejoin="round" stroke-miterlimit="10" stroke-width="2"/><path d="M43.764,0S8.591,29.879,3.829,33.963A9.63,9.63,0,0,0,0,41.643" transform="translate(0.5 16.607)" fill="none" stroke="#00004d" stroke-linecap="round" stroke-linejoin="round" stroke-miterlimit="10" stroke-width="2"/><path d="M0,0S23.794,20.211,28.556,24.294a9.629,9.629,0,0,1,3.829,7.679" transform="translate(70.115 26.276)" fill="none" stroke="#00004d" stroke-linecap="round" stroke-linejoin="round" stroke-miterlimit="10" stroke-width="2"/></g><g transform="translate(10 125)"><path d="M160,42.62l-14.518-21A40,40,0,0,0,123.368,5.846L102.5,0A22.5,22.5,0,0,1,80,22.5h0A22.5,22.5,0,0,1,57.5,0L36.632,5.846A40,40,0,0,0,14.518,21.618L0,42.62V57.5H160Z" transform="translate(0 12.5)" fill="#80c43b"/></g><g transform="translate(45 91.221)"><path d="M43.605,73.943a10.023,10.023,0,0,1-4.89-1.277L15.333,59.558A29.986,29.986,0,0,1,.646,27.209L5.836,2.552A10.069,10.069,0,0,0,9.494,0l2.588,8.443a15.041,15.041,0,0,0,9.511,9.807L26.4,19.886l1.924-3.794a10,10,0,0,1,8.919-5.477H49.964a10,10,0,0,1,8.918,5.477l1.924,3.794,4.811-1.636a15.041,15.041,0,0,0,9.511-9.807L77.716,0a10.063,10.063,0,0,0,3.657,2.551l5.192,24.657A29.99,29.99,0,0,1,71.877,59.558L48.495,72.666A10.02,10.02,0,0,1,43.605,73.943Zm-8.58-58.164a2,2,0,0,0-1.888,1.341l-.671,1.923a5.007,5.007,0,0,0,2.21,5.972l3.909,2.268a10,10,0,0,0,10.04,0l3.909-2.268a5.008,5.008,0,0,0,2.21-5.972l-.671-1.923a2,2,0,0,0-1.888-1.341Z" transform="translate(1.25 0)" fill="#00004d"/></g></g></g></svg>