<svg xmlns="http://www.w3.org/2000/svg" xmlns:xlink="http://www.w3.org/1999/xlink" width="360" height="381" viewBox="0 0 360 381">
  <defs>
    <clipPath id="clip-path">
      <rect id="background-square" width="360" height="360" fill="#f5f5f8"/>
    </clipPath>
  </defs>
  <g id="avatar-frame" transform="translate(-10 -10)">
    <g id="avatar-frame-2" data-name="avatar-frame" transform="translate(10 10)" clip-path="url(#clip-path)">
      <g id="body" transform="translate(20.001 70)">
        <g id="body_dark-brown" data-name="body/dark-brown">
          <path id="Fill_1" data-name="Fill 1" d="M290.963,248.235a80,80,0,0,0-44.227-31.543L205,205V175a74.877,74.877,0,0,0,29.943-57.7A20,20,0,1,0,235,80.675V75A75,75,0,0,0,160,0h0A75,75,0,0,0,85,75v5.675a20,20,0,1,0,.058,36.622A74.875,74.875,0,0,0,115,175v30L73.263,216.692a80,80,0,0,0-44.227,31.543L0,290.24V320H320V290.24Z" fill="#d99771"/>
          <path id="Fill_4" data-name="Fill 4" d="M26.28,15A74.825,74.825,0,0,1,0,10.254,74.565,74.565,0,0,0,40.28,22a74.7,74.7,0,0,0,31-6.71V0A74.665,74.665,0,0,1,26.28,15Z" transform="translate(133.719 175.001)" fill="#a3420b"/>
          <path id="Stroke_6" data-name="Stroke 6" d="M14.89,13.918A11.007,11.007,0,0,0,0,.864" transform="translate(72.719 88.001)" fill="none" stroke="#00004d" stroke-linecap="round" stroke-linejoin="round" stroke-miterlimit="10" stroke-width="2"/>
          <path id="Stroke_8" data-name="Stroke 8" d="M.391,13.918A11.008,11.008,0,0,1,15.282.864" transform="translate(232 88.001)" fill="none" stroke="#00004d" stroke-linecap="round" stroke-linejoin="round" stroke-miterlimit="10" stroke-width="2"/>
        </g>
      </g>
      <g id="mouth" transform="translate(140 204.509)">
        <rect id="mouth_default_background" data-name="mouth/default background" width="80" height="60" fill="none"/>
      </g>
      <g id="nose" transform="translate(163 152)">
        <rect id="nose_default_background" data-name="nose/default background" width="40" height="60" fill="none"/>
        <path id="nose-2" data-name="nose" d="M4,0,14,34,0,36" transform="translate(13 12)" fill="none" stroke="#00004d" stroke-linecap="round" stroke-linejoin="round" stroke-miterlimit="10" stroke-width="2"/>
      </g>
      <path id="twinkle" d="M25.119,0A14.989,14.989,0,0,1,12.432,6.993,14.986,14.986,0,0,1,0,.389" transform="translate(168.441 220.174)" fill="none" stroke="#00004d" stroke-linecap="round" stroke-linejoin="round" stroke-miterlimit="10" stroke-width="2"/>
    </g>
    <g id="head_hair_long_07" data-name="head/hair/long/07" transform="translate(50.359 69.674)">
      <path id="long-07" d="M172,306.269a50.012,50.012,0,0,1,36.746-48.211,19.986,19.986,0,0,0,27.93,16.25,74.856,74.856,0,0,0,28.747,56.736A50,50,0,0,1,172,306.269ZM228.641,236c-.635,0-1.264.037-1.884.1-.069-1.358-.116-2.721-.116-4.1a85,85,0,1,1,170,0c0,1.375-.045,2.738-.114,4.1-.622-.059-1.248-.1-1.885-.1a19.925,19.925,0,0,0-14.32,6.054A100.387,100.387,0,0,1,335.28,201.44a149.454,149.454,0,0,1-91.88,41.1A19.923,19.923,0,0,0,228.641,236Z" transform="translate(-172 -147)" fill="#00004d"/>
    </g>
    <g id="eyes_default" data-name="eyes/default" transform="translate(148 179)">
      <path id="eye-right" d="M16,8A8,8,0,1,1,8,0a8,8,0,0,1,8,8" transform="translate(77)" fill="#00004d"/>
      <path id="eye-left" d="M16,8A8,8,0,1,1,8,0a8,8,0,0,1,8,8" fill="#00004d"/>
    </g>
    <g id="clothing_turtleneck" data-name="clothing/turtleneck" transform="translate(30 251)">
      <g id="turtleneck" transform="translate(0 0)">
        <path id="Fill_1-2" data-name="Fill 1" d="M320,110.24l-29.036-42a80,80,0,0,0-44.228-31.543L210,26.4V5a5,5,0,0,0-5-5V5a74.665,74.665,0,0,1-45,15A74.665,74.665,0,0,1,115,5V0a5,5,0,0,0-5,5V26.4L73.264,36.692A80,80,0,0,0,29.036,68.235L0,110.239V140H320Z" transform="translate(0 0)" fill="#ff64c8"/>
        <path id="Stroke_4" data-name="Stroke 4" d="M76.461,14.3A74.831,74.831,0,0,1,50,19.1,74.72,74.72,0,0,1,0,0" transform="translate(109.997 26.4)" fill="none" stroke="#00004d" stroke-linecap="round" stroke-linejoin="round" stroke-miterlimit="10" stroke-width="2"/>
      </g>
    </g>
  </g>
</svg>
