<svg xmlns="http://www.w3.org/2000/svg" xmlns:xlink="http://www.w3.org/1999/xlink" width="180" height="180" viewBox="0 0 180 180"><defs><clipPath id="a"><rect width="180" height="180" fill="#f5f5f8"/></clipPath></defs><g transform="translate(-10 -10)"><g transform="translate(10 10)" clip-path="url(#a)"><g transform="translate(10 35)"><path d="M145.482,124.118a40,40,0,0,0-22.114-15.771L102.5,102.5v-15a37.439,37.439,0,0,0,14.972-28.852,10,10,0,1,0,.029-18.311V37.5A37.5,37.5,0,0,0,80,0h0A37.5,37.5,0,0,0,42.5,37.5v2.838a10,10,0,1,0,.029,18.311A37.438,37.438,0,0,0,57.5,87.5v15l-20.868,5.846a40,40,0,0,0-22.114,15.771L0,145.12V160H160V145.12Z" fill="#844123"/><path d="M13.14,7.5A37.412,37.412,0,0,1,0,5.127,37.282,37.282,0,0,0,20.14,11a37.348,37.348,0,0,0,15.5-3.355V0A37.333,37.333,0,0,1,13.14,7.5Z" transform="translate(66.86 87.5)" fill="#702a0f"/><path d="M7.445,6.959A5.5,5.5,0,0,0,0,.432" transform="translate(36.359 44)" fill="none" stroke="#00004d" stroke-linecap="round" stroke-linejoin="round" stroke-miterlimit="10" stroke-width="2"/><path d="M.2,6.959A5.5,5.5,0,0,1,7.641.432" transform="translate(116 44)" fill="none" stroke="#00004d" stroke-linecap="round" stroke-linejoin="round" stroke-miterlimit="10" stroke-width="2"/></g><g transform="translate(70 102.255)"><rect width="40" height="30" fill="none"/><path d="M10,6c0,3.314-2.239,6-5,6S0,9.314,0,6,2.239,0,5,0s5,2.687,5,6" transform="translate(15 4.75)" fill="#00004d"/></g><g transform="translate(65 76)"><rect width="50" height="20" fill="none"/><path d="M8,4A4,4,0,1,1,4,0,4,4,0,0,1,8,4" transform="translate(37.5 6)" fill="#00004d"/><path d="M8,4A4,4,0,1,1,4,0,4,4,0,0,1,8,4" transform="translate(4.5 6)" fill="#00004d"/></g><g transform="translate(81.5 76)"><rect width="20" height="30" fill="none"/><path d="M2,0,7,17,0,18" transform="translate(6.5 6)" fill="none" stroke="#00004d" stroke-linecap="round" stroke-linejoin="round" stroke-miterlimit="10" stroke-width="2"/></g><path d="M60,0A60.008,60.008,0,0,0,37.5,115.634V108A37.434,37.434,0,0,1,22.529,79.148a9.994,9.994,0,1,1-.5-18.488c.092.035.185.068.276.1a9.976,9.976,0,0,1,3.106,2.021A50.069,50.069,0,0,0,36.255,46.512a50.07,50.07,0,0,0,47.49,0A50.069,50.069,0,0,0,94.586,62.786a9.961,9.961,0,0,1,3.107-2.021c.09-.037.182-.069.274-.1a9.994,9.994,0,1,1-.5,18.487A37.436,37.436,0,0,1,82.5,108v7.634A60.008,60.008,0,0,0,60,0" transform="translate(30 14.5)" fill="#00004d"/><g transform="translate(10 125)"><g transform="translate(0 12.5)"><path d="M160,42.62l-14.518-21A40,40,0,0,0,123.368,5.846L102.5,0A22.5,22.5,0,0,1,80,22.5,22.5,22.5,0,0,1,57.5,0L36.632,5.846A40,40,0,0,0,14.518,21.618L0,42.62V57.5H160Z" fill="#fb344f"/><path d="M56.78,10.75A30,30,0,0,1,29.892,27.43,30,30,0,0,1,0,0" transform="translate(50.108 2.07)" fill="none" stroke="#00004d" stroke-linecap="round" stroke-linejoin="round" stroke-miterlimit="10" stroke-width="2"/></g></g></g></g></svg>