<?xml version="1.0" encoding="iso-8859-1"?>
<!-- Generator: Adobe Illustrator 19.0.0, SVG Export Plug-In . SVG Version: 6.00 Build 0)  -->
<svg version="1.1" id="Layer_1" xmlns="http://www.w3.org/2000/svg" xmlns:xlink="http://www.w3.org/1999/xlink" x="0px" y="0px"
	 viewBox="0 0 297 297" style="enable-background:new 0 0 297 297;" xml:space="preserve">
<g>
	<g>
		<g>
			<g>
				<circle style="fill:#345065;" cx="148.5" cy="148.5" r="148.5"/>
			</g>
		</g>
	</g>
	<path style="fill:#213947;" d="M295.261,125.716l-36.338-36.338L65.861,195.214l100.687,100.692C240.049,287,297,224.405,297,148.5
		C297,140.752,296.405,133.144,295.261,125.716z"/>
	<path style="fill:#FFFFFF;" d="M221.411,197.645c-47.756-12.852-98.066-12.852-145.822,0c-5.39,1.45-10.953-1.67-12.594-7.004
		c-9.284-30.179-18.568-60.357-27.852-90.536c-1.728-5.618,1.539-11.532,7.202-13.108c69.449-19.322,142.863-19.322,212.312,0
		c5.663,1.575,8.93,7.49,7.202,13.108c-9.284,30.179-18.568,60.357-27.852,90.536C232.364,195.975,226.8,199.095,221.411,197.645z"
		/>
	<path style="fill:#EDECEB;" d="M254.656,86.997c-34.832-9.69-70.66-14.518-106.486-14.488v115.5
		c24.626-0.029,49.256,3.182,73.24,9.636c5.39,1.45,10.953-1.67,12.594-7.004c9.284-30.179,18.568-60.357,27.852-90.536
		C263.586,94.487,260.319,88.572,254.656,86.997z"/>
	<path style="fill:#9ADAD9;" d="M57.175,171.722c1.94,6.306,3.88,12.612,5.82,18.919c1.641,5.334,7.205,8.455,12.594,7.004
		c47.756-12.852,98.066-12.852,145.822,0c5.39,1.45,10.953-1.67,12.594-7.004c1.94-6.306,3.88-12.613,5.82-18.919
		C179.928,156.234,117.072,156.234,57.175,171.722z"/>
	<path style="fill:#80B7B4;" d="M148.171,160.108v27.9c24.626-0.029,49.255,3.182,73.24,9.636c5.39,1.45,10.953-1.67,12.594-7.004
		c1.94-6.306,3.88-12.613,5.82-18.919C209.77,163.95,178.969,160.081,148.171,160.108z"/>
	<polygon style="fill:#F86E51;" points="170.667,118.944 155.889,118.944 155.889,104.167 141.111,104.167 141.111,118.944 
		126.333,118.944 126.333,133.722 141.111,133.722 141.111,148.5 155.889,148.5 155.889,133.722 170.667,133.722 	"/>
	<polygon style="fill:#C63C22;" points="155.889,118.944 155.889,104.167 148.171,104.167 148.171,148.5 155.889,148.5 
		155.889,133.722 170.667,133.722 170.667,118.944 	"/>
</g>
<g>
</g>
<g>
</g>
<g>
</g>
<g>
</g>
<g>
</g>
<g>
</g>
<g>
</g>
<g>
</g>
<g>
</g>
<g>
</g>
<g>
</g>
<g>
</g>
<g>
</g>
<g>
</g>
<g>
</g>
</svg>
