<svg xmlns="http://www.w3.org/2000/svg" xmlns:xlink="http://www.w3.org/1999/xlink" width="180" height="180" viewBox="0 0 180 180"><defs><clipPath id="a"><rect width="180" height="180" fill="#f5f5f8"/></clipPath></defs><g transform="translate(-10 -10)"><g transform="translate(10 10)" clip-path="url(#a)"><g transform="translate(10 35)"><g transform="translate(0)"><path d="M145.482,124.118a40,40,0,0,0-22.114-15.771L102.5,102.5v-15a37.439,37.439,0,0,0,14.972-28.852,10,10,0,1,0,.029-18.311V37.5A37.5,37.5,0,0,0,80,0h0A37.5,37.5,0,0,0,42.5,37.5v2.838a10,10,0,1,0,.029,18.311A37.438,37.438,0,0,0,57.5,87.5v15l-20.868,5.846a40,40,0,0,0-22.114,15.771L0,145.12V160H160V145.12Z" fill="#f5cdd3"/><path d="M13.14,7.5A37.412,37.412,0,0,1,0,5.127,37.282,37.282,0,0,0,20.14,11a37.348,37.348,0,0,0,15.5-3.355V0A37.333,37.333,0,0,1,13.14,7.5Z" transform="translate(66.86 87.5)" fill="#f48c9d"/><path d="M7.445,6.959A5.5,5.5,0,0,0,0,.432" transform="translate(36.359 44)" fill="none" stroke="#00004d" stroke-linecap="round" stroke-linejoin="round" stroke-miterlimit="10" stroke-width="2"/><path d="M.2,6.959A5.5,5.5,0,0,1,7.641.432" transform="translate(116 44)" fill="none" stroke="#00004d" stroke-linecap="round" stroke-linejoin="round" stroke-miterlimit="10" stroke-width="2"/></g></g><g transform="translate(70 102.255)"><rect width="40" height="30" fill="none"/><path d="M20,0A10,10,0,0,1,0,0Z" transform="translate(10 4.75)" fill="#fff"/></g><g transform="translate(65 76)"><rect width="50" height="20" fill="none"/><path d="M8,4A4,4,0,1,1,4,0,4,4,0,0,1,8,4" transform="translate(37.5 6)" fill="#00004d"/><path d="M8,4A4,4,0,1,1,4,0,4,4,0,0,1,8,4" transform="translate(4.5 6)" fill="#00004d"/></g><g transform="translate(81.5 76)"><rect width="20" height="30" fill="none"/><path d="M2,0,7,17,0,18" transform="translate(6.5 6)" fill="none" stroke="#00004d" stroke-linecap="round" stroke-linejoin="round" stroke-miterlimit="10" stroke-width="2"/></g><path d="M74.582,53.609A9.958,9.958,0,0,1,80,50.944V31.181A20,20,0,0,0,68.945,13.292L44.472,1.056a10,10,0,0,0-8.944,0L11.056,13.292A20,20,0,0,0,0,31.181V50.944a9.958,9.958,0,0,1,5.418,2.665v-.217A16.644,16.644,0,0,1,29.9,38.709a21.455,21.455,0,0,0,20.2,0,16.644,16.644,0,0,1,24.48,14.682Z" transform="translate(50 23.68)" fill="#ffca00"/><g transform="translate(10 125)"><g transform="translate(0 0.468)"><path d="M160,54.652l-14.518-21a40,40,0,0,0-22.114-15.772l-1.105-.31-4.472-8.68a10,10,0,0,0-5.166-4.7L102.5.125V12.152l0,.008L80.128,34.529c-.043,0-.085,0-.128,0l-22.5-22.5V0L47.376,4.062a10,10,0,0,0-5.167,4.7l-4.547,8.826-1.031.289A40,40,0,0,0,14.518,33.65L0,54.652v14.88H160Z" fill="#80c43b"/><path d="M0,0,42.338,24.5,72.983,6.858" transform="translate(37.663 17.589)" fill="none" stroke="#00004d" stroke-linecap="round" stroke-linejoin="round" stroke-miterlimit="10" stroke-width="2"/><path d="M1.5,27.486h0a1.5,1.5,0,0,1-1.5-1.5V0L3,1.7V25.986a1.5,1.5,0,0,1-1.5,1.5" transform="translate(67 34.607)" fill="#00004d"/><path d="M1.5,16.986h0a1.5,1.5,0,0,1-1.5-1.5V1.727L3,0V15.486a1.5,1.5,0,0,1-1.5,1.5" transform="translate(90 34.607)" fill="#00004d"/></g><path d="M0,0,4,4" transform="translate(53.5 8.5)" fill="none" stroke="#00004d" stroke-linecap="round" stroke-linejoin="round" stroke-miterlimit="10" stroke-width="2"/></g><g transform="translate(50 67.5)"><path d="M53.264,0h-15a5,5,0,0,0-4.724,3.374A3.492,3.492,0,0,0,30.764,2H27.5a3.49,3.49,0,0,0-2.775,1.374A5,5,0,0,0,20,0H5A5,5,0,0,0,0,5V8.5a12.5,12.5,0,0,0,25,0A3.5,3.5,0,0,1,28.5,5h1.264a3.5,3.5,0,0,1,3.5,3.5,12.5,12.5,0,0,0,25,0V5a5,5,0,0,0-5-5" transform="translate(10.75 8.5)" fill="#00004d"/></g></g></g></svg>