<svg xmlns="http://www.w3.org/2000/svg" xmlns:xlink="http://www.w3.org/1999/xlink" width="180" height="180" viewBox="0 0 180 180"><defs><clipPath id="a"><rect width="180" height="180" fill="#f5f5f8"/></clipPath></defs><g transform="translate(-10 -10)"><g transform="translate(10 10)" clip-path="url(#a)"><g transform="translate(10 35)"><g transform="translate(0)"><path d="M145.482,124.118a40,40,0,0,0-22.114-15.771L102.5,102.5v-15a37.439,37.439,0,0,0,14.972-28.852,10,10,0,1,0,.029-18.311V37.5A37.5,37.5,0,0,0,80,0h0A37.5,37.5,0,0,0,42.5,37.5v2.838a10,10,0,1,0,.029,18.311A37.438,37.438,0,0,0,57.5,87.5v15l-20.868,5.846a40,40,0,0,0-22.114,15.771L0,145.12V160H160V145.12Z" fill="#ffcf83"/><path d="M13.14,7.5A37.412,37.412,0,0,1,0,5.127,37.282,37.282,0,0,0,20.14,11a37.348,37.348,0,0,0,15.5-3.355V0A37.333,37.333,0,0,1,13.14,7.5Z" transform="translate(66.86 87.5)" fill="#f7a74f"/><path d="M7.445,6.959A5.5,5.5,0,0,0,0,.432" transform="translate(36.359 44)" fill="none" stroke="#00004d" stroke-linecap="round" stroke-linejoin="round" stroke-miterlimit="10" stroke-width="2"/><path d="M.2,6.959A5.5,5.5,0,0,1,7.641.432" transform="translate(116 44)" fill="none" stroke="#00004d" stroke-linecap="round" stroke-linejoin="round" stroke-miterlimit="10" stroke-width="2"/></g></g><g transform="translate(70 102.255)"><rect width="40" height="30" fill="none"/><g transform="translate(7.5 4.655)"><path d="M25,0A12.5,12.5,0,0,1,0,0Z" fill="#ae1328"/><path d="M13.991,2.861A9.984,9.984,0,0,0,0,2.861,12.438,12.438,0,0,0,7,5a12.438,12.438,0,0,0,7-2.139" transform="translate(5.505 7.5)" fill="#fb344f"/><path d="M17.5,4H2.5A2.5,2.5,0,0,1,0,1.5V0H20V1.5A2.5,2.5,0,0,1,17.5,4" transform="translate(2.5)" fill="#fff"/></g></g><g transform="translate(65 76)"><rect width="50" height="20" fill="none"/><path d="M4,5A5.966,5.966,0,0,1,7.417,6.071,4,4,0,1,0,0,4,3.972,3.972,0,0,0,.583,6.071,5.966,5.966,0,0,1,4,5" transform="translate(37.5 6.964)" fill="#00004d"/><path d="M4,5A5.966,5.966,0,0,1,7.417,6.071,4,4,0,1,0,0,4,3.972,3.972,0,0,0,.583,6.071,5.966,5.966,0,0,1,4,5" transform="translate(4.5 6.964)" fill="#00004d"/></g><g transform="translate(81.5 76)"><rect width="20" height="30" fill="none"/><path d="M2,0,6.88,12.55A4,4,0,0,1,3.152,18H0" transform="translate(6.422 6)" fill="none" stroke="#00004d" stroke-linecap="round" stroke-linejoin="round" stroke-miterlimit="10" stroke-width="2"/></g><g transform="translate(47.5 27.5)"><path d="M24.677,17.5a17.457,17.457,0,0,0,1.053,5.99A43.183,43.183,0,0,0,0,63.032v1.517a9.957,9.957,0,0,1,8.518,3.37l.1-.023,3-18,2.743,6.858A5,5,0,0,0,19,59.9H66a5,5,0,0,0,4.643-3.142L73.386,49.9l3,18,.092.028A9.966,9.966,0,0,1,84,64.5c.338,0,.671.018,1,.051V62.5A42.51,42.51,0,0,0,58.721,23.207" transform="translate(0 -17.5)" fill="#00004d"/></g><g transform="translate(10 125)"><g transform="translate(0 0)"><path d="M160,55.12l-14.518-21a40,40,0,0,0-22.114-15.771L105,13.2V2.5A2.5,2.5,0,0,0,102.5,0V2.5A37.333,37.333,0,0,1,80,10,37.333,37.333,0,0,1,57.5,2.5V0A2.5,2.5,0,0,0,55,2.5V13.2L36.632,18.346A40,40,0,0,0,14.518,34.118L0,55.119V70H160Z" fill="#f5f5f8"/><path d="M38.23,7.15A37.415,37.415,0,0,1,25,9.55,37.36,37.36,0,0,1,0,0" transform="translate(54.999 13.2)" fill="none" stroke="#00004d" stroke-linecap="round" stroke-linejoin="round" stroke-miterlimit="10" stroke-width="2"/></g></g></g></g></svg>