<?xml version="1.0" encoding="iso-8859-1"?>
<!-- Generator: Adobe Illustrator 19.0.0, SVG Export Plug-In . SVG Version: 6.00 Build 0)  -->
<svg version="1.1" id="Layer_1" xmlns="http://www.w3.org/2000/svg" xmlns:xlink="http://www.w3.org/1999/xlink" x="0px" y="0px"
	 viewBox="0 0 512 512" style="enable-background:new 0 0 512 512;" xml:space="preserve">
<rect x="11.506" y="34.517" style="fill:#ECF0F1;" width="488.989" height="345.169"/>
<rect x="11.506" y="379.685" style="fill:#9E9E9E;" width="488.989" height="97.798"/>
<circle style="fill:#B71C1C;" cx="256" cy="207.101" r="126.562"/>
<polygon style="fill:#ECF0F1;" points="227.811,157.281 314.103,207.101 227.811,256.922 "/>
<g>
	<path style="fill:#231F20;" d="M500.494,23.011H11.506C5.151,23.011,0,28.163,0,34.517v442.966c0,6.353,5.151,11.506,11.506,11.506
		h488.989c6.355,0,11.506-5.152,11.506-11.506V34.517C512,28.163,506.849,23.011,500.494,23.011z M23.011,46.022h465.978V368.18
		H23.011V46.022z M488.989,465.978H23.011v-74.787h465.978V465.978z"/>
	<path style="fill:#231F20;" d="M367.405,323.331c-0.668,0.641-1.342,1.275-2.019,1.904c-4.656,4.324-4.926,11.605-0.602,16.261
		c2.268,2.441,5.345,3.676,8.435,3.676c2.802,0,5.611-1.018,7.826-3.074c0.769-0.715,1.531-1.432,2.288-2.158
		c4.586-4.399,4.739-11.682,0.341-16.269C379.276,319.085,371.992,318.932,367.405,323.331z"/>
	<path style="fill:#231F20;" d="M428.584,195.596c-6.355,0-11.506,5.152-11.506,11.506c0,32.79-9.836,64.364-28.446,91.306
		c-3.612,5.229-2.301,12.395,2.928,16.007c1.995,1.377,4.273,2.039,6.528,2.039c3.652,0,7.244-1.735,9.477-4.968
		c21.277-30.804,32.524-66.899,32.524-104.384C440.09,200.748,434.939,195.596,428.584,195.596z"/>
	<path style="fill:#231F20;" d="M256,69.034c-76.13,0-138.067,61.937-138.067,138.067S179.87,345.169,256,345.169
		s138.067-61.937,138.067-138.067S332.13,69.034,256,69.034z M256,322.157c-63.442,0-115.056-51.613-115.056-115.056
		S192.558,92.045,256,92.045s115.056,51.613,115.056,115.056S319.442,322.157,256,322.157z"/>
	<path style="fill:#231F20;" d="M319.856,197.137l-86.292-49.822c-3.56-2.055-7.946-2.056-11.506,0
		c-3.56,2.055-5.753,5.854-5.753,9.964v99.643c0,4.11,2.193,7.909,5.753,9.964c1.78,1.029,3.766,1.542,5.753,1.542
		c1.987,0,3.973-0.513,5.753-1.542l86.292-49.822c3.56-2.055,5.753-5.854,5.753-9.964
		C325.609,202.991,323.416,199.192,319.856,197.137z M239.317,236.994v-59.787l51.775,29.894L239.317,236.994z"/>
	<path style="fill:#231F20;" d="M112.18,440.09h330.594c6.355,0,11.506-5.152,11.506-11.506c0-6.353-5.151-11.506-11.506-11.506
		H112.18c-6.355,0-11.506,5.152-11.506,11.506C100.674,434.938,105.825,440.09,112.18,440.09z"/>
	<path style="fill:#231F20;" d="M69.226,440.09h4.027c6.355,0,11.506-5.152,11.506-11.506c0-6.353-5.151-11.506-11.506-11.506
		h-4.027c-6.355,0-11.506,5.152-11.506,11.506C57.72,434.938,62.871,440.09,69.226,440.09z"/>
</g>
<g>
</g>
<g>
</g>
<g>
</g>
<g>
</g>
<g>
</g>
<g>
</g>
<g>
</g>
<g>
</g>
<g>
</g>
<g>
</g>
<g>
</g>
<g>
</g>
<g>
</g>
<g>
</g>
<g>
</g>
</svg>
