<svg xmlns="http://www.w3.org/2000/svg" xmlns:xlink="http://www.w3.org/1999/xlink" width="360" height="360" viewBox="0 0 360 360"><defs><clipPath id="a"><circle cx="180" cy="180" r="180" fill="#f5f5f8"/></clipPath></defs><g clip-path="url(#a)"><g transform="translate(20.001 70)"><g transform="translate(0)"><path d="M290.963,248.235a80,80,0,0,0-44.227-31.543L205,205V175a74.877,74.877,0,0,0,29.943-57.7A20,20,0,1,0,235,80.675V75A75,75,0,0,0,160,0h0A75,75,0,0,0,85,75v5.675a20,20,0,1,0,.058,36.622A74.875,74.875,0,0,0,115,175v30L73.263,216.692a80,80,0,0,0-44.227,31.543L0,290.24V320H320V290.24Z" transform="translate(0)" fill="#ffcf83"/><path d="M26.28,15A74.825,74.825,0,0,1,0,10.254,74.565,74.565,0,0,0,40.28,22a74.7,74.7,0,0,0,31-6.71V0A74.665,74.665,0,0,1,26.28,15Z" transform="translate(133.719 175.001)" fill="#f7a74f"/><path d="M14.89,13.918A11.007,11.007,0,0,0,0,.864" transform="translate(72.719 88.001)" fill="none" stroke="#00004d" stroke-linecap="round" stroke-linejoin="round" stroke-miterlimit="10" stroke-width="2"/><path d="M.391,13.918A11.008,11.008,0,0,1,15.282.864" transform="translate(232 88.001)" fill="none" stroke="#00004d" stroke-linecap="round" stroke-linejoin="round" stroke-miterlimit="10" stroke-width="2"/></g></g><g transform="translate(140 204.509)"><rect width="80" height="60" fill="none"/><path d="M40,0A20,20,0,0,1,0,0Z" transform="translate(20 9.5)" fill="#fff"/></g><g transform="translate(130 152)"><rect width="100" height="40" fill="none"/><path d="M16,8A8,8,0,1,1,8,0a8,8,0,0,1,8,8" transform="translate(75.001 12)" fill="#00004d"/><path d="M16,8A8,8,0,1,1,8,0a8,8,0,0,1,8,8" transform="translate(9 12)" fill="#00004d"/></g><g transform="translate(163 152)"><rect width="40" height="60" fill="none"/><path d="M4,0,14,34,0,36" transform="translate(13 12)" fill="none" stroke="#00004d" stroke-linecap="round" stroke-linejoin="round" stroke-miterlimit="10" stroke-width="2"/></g><path d="M160,84.249V80A80,80,0,1,0,0,80v4.249a19.924,19.924,0,0,1,10.828,5.323A100.138,100.138,0,0,0,32.51,57.023,99.546,99.546,0,0,0,80,69a99.546,99.546,0,0,0,47.49-11.977,100.138,100.138,0,0,0,21.682,32.549A19.924,19.924,0,0,1,160,84.249" transform="translate(100 65)" fill="#00004d"/><g transform="translate(20 250)"><path d="M320,85.24l-29.037-42a80,80,0,0,0-44.227-31.543L205,0a45,45,0,0,1-45,45h0A45,45,0,0,1,115,0L73.263,11.692A80.005,80.005,0,0,0,29.036,43.235L0,85.24V115H320Z" transform="translate(0 25)" fill="#fb344f"/></g></g></svg>