<svg xmlns="http://www.w3.org/2000/svg" xmlns:xlink="http://www.w3.org/1999/xlink" width="360" height="360" viewBox="0 0 360 360"><defs><clipPath id="a"><rect width="360" height="360" rx="40" fill="#f5f5f8"/></clipPath></defs><g transform="translate(2290 -713.6)"><g transform="translate(-2290 713.6)"><g clip-path="url(#a)"><g transform="translate(20.001 70)"><g transform="translate(0)"><path d="M290.963,248.235a80,80,0,0,0-44.227-31.543L205,205V175a74.877,74.877,0,0,0,29.943-57.7A20,20,0,1,0,235,80.675V75A75,75,0,0,0,160,0h0A75,75,0,0,0,85,75v5.675a20,20,0,1,0,.058,36.622A74.875,74.875,0,0,0,115,175v30L73.263,216.692a80,80,0,0,0-44.227,31.543L0,290.24V320H320V290.24Z" transform="translate(0)" fill="#b5683c"/><path d="M26.28,15A74.825,74.825,0,0,1,0,10.254,74.565,74.565,0,0,0,40.28,22a74.7,74.7,0,0,0,31-6.71V0A74.665,74.665,0,0,1,26.28,15Z" transform="translate(133.719 175.001)" fill="#b5683c"/><path d="M14.89,13.918A11.007,11.007,0,0,0,0,.864" transform="translate(72.719 88.001)" fill="none" stroke="#00004d" stroke-linecap="round" stroke-linejoin="round" stroke-miterlimit="10" stroke-width="2"/><path d="M.391,13.918A11.008,11.008,0,0,1,15.282.864" transform="translate(232 88.001)" fill="none" stroke="#00004d" stroke-linecap="round" stroke-linejoin="round" stroke-miterlimit="10" stroke-width="2"/></g></g><g transform="translate(163 152)"><rect width="40" height="60" fill="none"/><path d="M4,0,14,34,0,36" transform="translate(13 12)" fill="none" stroke="#00004d" stroke-linecap="round" stroke-linejoin="round" stroke-miterlimit="10" stroke-width="2"/></g><g transform="translate(80 65)"><path fill="#00004d"/></g><g transform="translate(20 275)"><path d="M320,85.24l-29.037-42a80,80,0,0,0-44.227-31.543L205,0a45,45,0,0,1-45,45h0A45,45,0,0,1,115,0L73.263,11.692A80.005,80.005,0,0,0,29.036,43.235L0,85.24V115H320Z" fill="#8623f5"/></g><g transform="translate(142 167)"><path d="M0,6A10,10,0,0,1,18.336,6" transform="translate(64.5 2)" fill="none" stroke="#00004d" stroke-linecap="round" stroke-linejoin="round" stroke-miterlimit="10" stroke-width="2"/><path d="M16,8A8,8,0,1,1,8,0a8,8,0,0,1,8,8" fill="#00004d"/></g></g><path d="M25.119,0A14.989,14.989,0,0,1,12.432,6.993,14.986,14.986,0,0,1,0,.389" transform="translate(167.44 225.5)" fill="none" stroke="#00004d" stroke-linecap="round" stroke-linejoin="round" stroke-miterlimit="10" stroke-width="2"/></g><path d="M0,159.269a50.014,50.014,0,0,1,36.746-48.211,19.986,19.986,0,0,0,27.93,16.25,74.856,74.856,0,0,0,28.747,56.736A50,50,0,0,1,0,159.269ZM56.641,89c-.635,0-1.264.037-1.884.1-.069-1.358-.116-2.722-.116-4.1a85,85,0,0,1,170,0c0,1.375-.045,2.739-.114,4.1-.622-.059-1.249-.1-1.886-.1a19.924,19.924,0,0,0-14.32,6.054A100.383,100.383,0,0,1,163.28,54.44a149.455,149.455,0,0,1-91.88,41.1A19.922,19.922,0,0,0,56.641,89Z" transform="translate(-2249.641 773.6)" fill="#00004d"/></g></svg>