<svg xmlns="http://www.w3.org/2000/svg" xmlns:xlink="http://www.w3.org/1999/xlink" width="180" height="180" viewBox="0 0 180 180">
  <defs>
    <clipPath id="clip-path">
      <rect id="background-square" width="180" height="180" transform="translate(10 10)" fill="#80c43b"/>
    </clipPath>
  </defs>
  <g id="avatar_frame" data-name="avatar/frame" transform="translate(-10 -10)">
    <g id="avatar-frame" transform="translate(0)">
      <g id="avatar-frame-2" data-name="avatar-frame" clip-path="url(#clip-path)">
        <g id="body" transform="translate(20 45)">
          <g id="body_dark-brown" data-name="body/dark-brown" transform="translate(0)">
            <path id="Fill_1" data-name="Fill 1" d="M145.482,124.118a40,40,0,0,0-22.114-15.771L102.5,102.5v-15a37.439,37.439,0,0,0,14.972-28.852,10,10,0,1,0,.029-18.311V37.5A37.5,37.5,0,0,0,80,0h0A37.5,37.5,0,0,0,42.5,37.5v2.838a10,10,0,1,0,.029,18.311A37.438,37.438,0,0,0,57.5,87.5v15l-20.868,5.846a40,40,0,0,0-22.114,15.771L0,145.12V160H160V145.12Z" fill="#b5683c"/>
            <path id="Fill_4" data-name="Fill 4" d="M13.14,7.5A37.412,37.412,0,0,1,0,5.127,37.282,37.282,0,0,0,20.14,11a37.348,37.348,0,0,0,15.5-3.355V0A37.333,37.333,0,0,1,13.14,7.5Z" transform="translate(66.86 87.5)" fill="#a3420b"/>
            <path id="Stroke_6" data-name="Stroke 6" d="M7.445,6.959A5.5,5.5,0,0,0,0,.432" transform="translate(36.359 44)" fill="none" stroke="#00004d" stroke-linecap="round" stroke-linejoin="round" stroke-miterlimit="10" stroke-width="2"/>
            <path id="Stroke_8" data-name="Stroke 8" d="M.2,6.959A5.5,5.5,0,0,1,7.641.432" transform="translate(116 44)" fill="none" stroke="#00004d" stroke-linecap="round" stroke-linejoin="round" stroke-miterlimit="10" stroke-width="2"/>
          </g>
        </g>
        <g id="mouth" transform="translate(80 112.255)">
          <rect id="mouth_smile-teeth_background" data-name="mouth/smile-teeth background" width="40" height="30" fill="none"/>
          <g id="smile-teeth" transform="translate(7.5 4.75)">
            <path id="Fill_1-2" data-name="Fill 1" d="M25,0A12.5,12.5,0,0,1,0,0Z" fill="#ae1328"/>
            <path id="Fill_4-2" data-name="Fill 4" d="M13.991,2.861A9.984,9.984,0,0,0,0,2.861,12.438,12.438,0,0,0,7,5a12.438,12.438,0,0,0,7-2.139" transform="translate(5.505 7.5)" fill="#fb344f"/>
            <path id="Fill_6" data-name="Fill 6" d="M17.5,4H2.5A2.5,2.5,0,0,1,0,1.5V0H20V1.5A2.5,2.5,0,0,1,17.5,4" transform="translate(2.5)" fill="#fff"/>
          </g>
        </g>
        <g id="eyes" transform="translate(75 86)">
          <rect id="eyes_closed_background" data-name="eyes/closed background" width="50" height="20" fill="none"/>
          <path id="eye-right" d="M9.168,0A5,5,0,0,1,4.584,3,5,5,0,0,1,0,0" transform="translate(36.75 8.5)" fill="none" stroke="#00004d" stroke-linecap="round" stroke-linejoin="round" stroke-miterlimit="10" stroke-width="2"/>
          <path id="eye-left" d="M9.168,0A5,5,0,0,1,4.584,3,5,5,0,0,1,0,0" transform="translate(3.75 8.5)" fill="none" stroke="#00004d" stroke-linecap="round" stroke-linejoin="round" stroke-miterlimit="10" stroke-width="2"/>
        </g>
        <g id="nose" transform="translate(91.5 86)">
          <rect id="nose_rounded_background" data-name="nose/rounded background" width="20" height="30" fill="none"/>
          <path id="nose-2" data-name="nose" d="M2,0,6.88,12.55A4,4,0,0,1,3.152,18H0" transform="translate(6.422 6)" fill="none" stroke="#00004d" stroke-linecap="round" stroke-linejoin="round" stroke-miterlimit="10" stroke-width="2"/>
        </g>
        <g id="clothing" transform="translate(20 135)">
          <path id="t-shirt" d="M160,42.62l-14.518-21A40,40,0,0,0,123.368,5.846L102.5,0A22.5,22.5,0,0,1,80,22.5h0A22.5,22.5,0,0,1,57.5,0L36.632,5.846A40,40,0,0,0,14.518,21.618L0,42.62V57.5H160Z" transform="translate(0 12.5)" fill="#2384f5"/>
        </g>
        <g id="head" transform="translate(10 10)">
          <g id="hijab" transform="translate(31.21 33)">
            <path id="part-2" d="M79.641,23.4H0L10,0H69.641Z" transform="translate(18.97 11)" fill="#006"/>
            <path id="part-1" d="M77.586,145.261h0L64.7,127.317A51.445,51.445,0,0,1,38.9,134.249h0a51.053,51.053,0,0,1-28.365-8.589L0,118.651c.018-.037,1.847-3.9,3.645-14.034C5.308,95.243,7.29,78.418,7.29,51.5a47.158,47.158,0,0,1,.84-8.72,53.65,53.65,0,0,1,2.5-8.888,55.841,55.841,0,0,1,4.13-8.646,54.347,54.347,0,0,1,5.729-7.994A49.5,49.5,0,0,1,36.624,4.86,50.963,50.963,0,0,1,58.791,0,50.962,50.962,0,0,1,80.957,4.86,49.5,49.5,0,0,1,97.091,17.251a54.347,54.347,0,0,1,5.729,7.994,55.841,55.841,0,0,1,4.13,8.646,53.651,53.651,0,0,1,2.5,8.888,47.158,47.158,0,0,1,.84,8.72c0,29.3,2,46.018,3.681,54.88a62.429,62.429,0,0,0,2.531,9.809,12.621,12.621,0,0,0,1.15,2.525L77.586,145.261ZM58.791,12a35.039,35.039,0,0,0-35,35V62a35,35,0,1,0,70,0V47A35.039,35.039,0,0,0,58.791,12Z" transform="translate(0)" fill="#ffca00"/>
            <path id="Stroke_10" data-name="Stroke 10" d="M68.284,87.118A40,40,0,0,1,0,58.833V40A40,40,0,0,1,40,0" transform="translate(18.791 12.833)" fill="none" stroke="#00004d" stroke-linecap="round" stroke-linejoin="round" stroke-miterlimit="10" stroke-width="2"/>
            <path id="Stroke_12" data-name="Stroke 12" d="M0,12.825A51.131,51.131,0,0,0,14.68,0" transform="translate(64.699 114.491)" fill="none" stroke="#00004d" stroke-linecap="round" stroke-linejoin="round" stroke-miterlimit="10" stroke-width="2"/>
          </g>
        </g>
      </g>
    </g>
  </g>
</svg>
