<svg xmlns="http://www.w3.org/2000/svg" xmlns:xlink="http://www.w3.org/1999/xlink" width="360" height="360" viewBox="0 0 360 360"><defs><clipPath id="a"><rect width="360" height="360" rx="40" fill="#f5f5f8"/></clipPath></defs><g clip-path="url(#a)"><g transform="translate(20.001 70)"><g transform="translate(0)"><path d="M290.963,248.235a80,80,0,0,0-44.227-31.543L205,205V175a74.877,74.877,0,0,0,29.943-57.7A20,20,0,1,0,235,80.675V75A75,75,0,0,0,160,0h0A75,75,0,0,0,85,75v5.675a20,20,0,1,0,.058,36.622A74.875,74.875,0,0,0,115,175v30L73.263,216.692a80,80,0,0,0-44.227,31.543L0,290.24V320H320V290.24Z" transform="translate(0)" fill="#e9ada1"/><path d="M26.28,15A74.825,74.825,0,0,1,0,10.254,74.565,74.565,0,0,0,40.28,22a74.7,74.7,0,0,0,31-6.71V0A74.665,74.665,0,0,1,26.28,15Z" transform="translate(133.719 175.001)" fill="#db8b79"/><path d="M14.89,13.918A11.007,11.007,0,0,0,0,.864" transform="translate(72.719 88.001)" fill="none" stroke="#00004d" stroke-linecap="round" stroke-linejoin="round" stroke-miterlimit="10" stroke-width="2"/><path d="M.391,13.918A11.008,11.008,0,0,1,15.282.864" transform="translate(232 88.001)" fill="none" stroke="#00004d" stroke-linecap="round" stroke-linejoin="round" stroke-miterlimit="10" stroke-width="2"/></g></g><g transform="translate(140 204.509)"><rect width="80" height="60" fill="none"/><path d="M40,0A20,20,0,0,1,0,0Z" transform="translate(20 9.5)" fill="#fff"/></g><g transform="translate(130 152)"><rect width="100" height="40" fill="none"/><path d="M16,8A8,8,0,1,1,8,0a8,8,0,0,1,8,8" transform="translate(75.001 12)" fill="#00004d"/><path d="M16,8A8,8,0,1,1,8,0a8,8,0,0,1,8,8" transform="translate(9 12)" fill="#00004d"/></g><g transform="translate(163 152)"><rect width="40" height="60" fill="none"/><path d="M4,0,14,34,0,36" transform="translate(13 12)" fill="none" stroke="#00004d" stroke-linecap="round" stroke-linejoin="round" stroke-miterlimit="10" stroke-width="2"/></g><path d="M0,200.277l12.146-76.9A19.7,19.7,0,0,0,25.058,122.3,74.892,74.892,0,0,0,55,179.976v20.3Zm145,0v-20.3A74.886,74.886,0,0,0,174.941,122.3a19.712,19.712,0,0,0,12.913,1.085L200,200.276ZM76.361,49.441A100.369,100.369,0,0,1,31.32,90.054a19.919,19.919,0,0,0-12.965-5.983L20.982,67.44h0A79.546,79.546,0,0,1,31.819,38.145a80.02,80.02,0,0,1,136.36,0,79.53,79.53,0,0,1,10.839,29.3l2.624,16.611a19.945,19.945,0,0,0-13.4,6.485A149.447,149.447,0,0,1,76.361,49.441Z" transform="translate(80 65)" fill="#00004d"/><g transform="translate(20 250)"><path d="M320,85.24l-29.037-42a80,80,0,0,0-44.227-31.543L205,0a45,45,0,0,1-45,45h0A45,45,0,0,1,115,0L73.263,11.692A80.005,80.005,0,0,0,29.036,43.235L0,85.24V115H320Z" transform="translate(0 25)" fill="#2384f5"/></g></g></svg>