<?xml version="1.0" standalone="no"?>
<!DOCTYPE svg PUBLIC "-//W3C//DTD SVG 20010904//EN"
 "http://www.w3.org/TR/2001/REC-SVG-20010904/DTD/svg10.dtd">
<svg version="1.0" xmlns="http://www.w3.org/2000/svg"
 width="890.000000pt" height="425.000000pt" viewBox="0 0 890.000000 425.000000"
 preserveAspectRatio="xMidYMid meet">

<g transform="translate(0.000000,425.000000) scale(0.100000,-0.100000)"
fill="#000000" stroke="none">
<path d="M2722 3423 c-10 -16 -272 -449 -580 -965 l-562 -936 0 -234 c0 -169
3 -237 12 -246 8 -8 65 -12 188 -12 170 0 177 1 197 22 12 13 276 447 587 966
l566 944 0 232 c0 167 -3 235 -12 244 -8 8 -66 12 -194 12 l-183 0 -19 -27z"/>
<path d="M3549 2845 c-35 -19 -51 -65 -37 -105 12 -35 47 -57 109 -66 61 -9
79 -21 79 -50 0 -50 -103 -56 -125 -6 -7 16 -18 22 -42 22 -36 0 -41 -12 -21
-55 32 -71 178 -83 237 -21 31 33 31 89 1 122 -24 24 -57 38 -121 48 -79 14
-73 66 8 66 36 0 46 -4 50 -20 4 -15 14 -20 39 -20 42 0 46 25 10 67 -21 24
-32 28 -92 30 -48 2 -77 -1 -95 -12z"/>
<path d="M3845 2711 c-31 -83 -55 -157 -52 -166 4 -8 17 -15 31 -15 19 0 27 8
36 35 l12 35 64 0 c65 0 65 0 80 -35 11 -27 20 -35 39 -35 22 0 25 4 25 33 -1
17 -25 91 -53 162 l-53 130 -35 3 -36 3 -58 -150z m114 12 c7 -21 15 -44 17
-50 4 -9 -6 -13 -35 -13 -23 0 -41 1 -41 3 0 15 34 97 39 97 4 0 13 -17 20
-37z"/>
<path d="M4130 2696 l0 -166 110 0 110 0 0 30 0 30 -75 0 -74 0 -3 133 -3 132
-32 3 -33 3 0 -165z"/>
<path d="M4390 2695 l0 -165 35 0 35 0 0 65 0 64 68 3 c65 3 67 4 70 31 l3 27
-70 0 -71 0 0 40 0 40 75 0 75 0 0 30 0 30 -110 0 -110 0 0 -165z"/>
<path d="M4740 2853 c-68 -27 -107 -118 -89 -204 23 -108 136 -156 241 -103
87 45 100 200 22 275 -30 29 -41 33 -97 36 -34 1 -69 0 -77 -4z m134 -86 c25
-33 28 -101 7 -140 -28 -53 -112 -56 -145 -5 -27 42 -25 114 5 152 18 23 27
27 67 24 36 -2 49 -9 66 -31z"/>
<path d="M5020 2696 l0 -166 35 0 35 0 0 65 c0 64 0 65 28 65 22 -1 36 -14 75
-65 31 -43 54 -65 68 -65 40 0 35 43 -12 101 l-21 26 31 31 c40 40 43 97 7
139 -23 27 -28 28 -135 31 l-111 4 0 -166z m195 64 l0 -35 -62 -3 -63 -3 0 41
0 41 63 -3 62 -3 0 -35z"/>
<path d="M5350 2695 l0 -167 89 4 c72 2 95 7 118 24 41 30 57 71 57 139 0 68
-16 109 -57 139 -23 17 -46 22 -118 24 l-89 4 0 -167z m169 86 c27 -27 36 -84
22 -132 -13 -44 -35 -59 -85 -59 l-36 0 0 105 0 105 40 0 c26 0 47 -7 59 -19z"/>
<path d="M4586 2305 c-22 -8 -51 -25 -65 -40 -22 -22 -26 -34 -26 -84 0 -90
37 -121 173 -147 94 -18 122 -35 122 -73 0 -44 -27 -61 -96 -61 -66 0 -101 17
-106 53 -3 19 -10 22 -57 25 l-53 3 6 -38 c16 -88 86 -133 206 -133 131 0 204
54 204 150 0 88 -50 131 -180 156 -87 16 -124 35 -124 63 0 31 33 51 84 51 57
0 84 -13 96 -46 9 -23 15 -25 57 -22 47 3 48 4 45 33 -8 72 -87 125 -187 125
-33 -1 -78 -7 -99 -15z"/>
<path d="M6215 2305 c-22 -8 -53 -28 -69 -46 -25 -29 -28 -37 -24 -85 3 -34
12 -62 24 -75 27 -30 88 -56 163 -68 80 -13 111 -32 111 -70 0 -44 -27 -61
-96 -61 -67 0 -98 16 -108 55 -6 23 -11 25 -57 25 l-52 0 6 -37 c14 -86 87
-133 207 -133 126 0 203 54 203 142 0 92 -52 139 -179 164 -87 16 -124 35
-124 64 0 33 28 50 81 50 60 0 87 -12 99 -46 8 -21 16 -24 56 -24 l47 0 -6 43
c-13 95 -155 147 -282 102z"/>
<path d="M6676 2305 c-22 -8 -51 -25 -65 -40 -22 -22 -26 -34 -26 -84 0 -90
37 -121 173 -147 94 -18 122 -35 122 -73 0 -44 -27 -61 -96 -61 -67 0 -98 16
-108 55 -6 23 -11 25 -57 25 l-52 0 6 -37 c14 -86 88 -133 207 -133 162 1 246
93 188 208 -29 58 -63 78 -164 98 -87 16 -124 35 -124 63 0 31 33 51 84 51 57
0 84 -13 96 -46 8 -21 16 -24 56 -24 l47 0 -6 43 c-10 74 -82 117 -192 117
-27 -1 -68 -7 -89 -15z"/>
<path d="M3542 2063 l3 -248 145 0 c162 0 197 10 225 65 32 62 7 169 -44 185
-19 6 -18 8 12 35 29 25 32 34 32 84 0 49 -4 59 -33 88 l-32 33 -155 3 -155 3
2 -248z m268 132 c6 -16 6 -34 0 -50 -9 -24 -13 -25 -90 -25 l-80 0 0 50 0 50
80 0 c77 0 81 -1 90 -25z m6 -190 c20 -27 17 -62 -6 -85 -18 -18 -31 -20 -93
-18 l-72 3 -3 49 c-5 77 -3 79 84 74 60 -3 79 -7 90 -23z"/>
<path d="M4010 2127 c0 -170 2 -186 23 -227 33 -67 88 -92 189 -88 81 3 112
17 151 69 29 40 37 92 37 267 l0 163 -52 -3 -53 -3 -5 -181 c-6 -211 -11 -224
-86 -224 -96 0 -104 19 -104 240 l0 170 -50 0 -50 0 0 -183z"/>
<path d="M4972 2063 l3 -248 45 0 45 0 3 248 2 247 -50 0 -50 0 2 -247z"/>
<path d="M5182 2063 l3 -248 45 0 45 0 5 164 5 164 95 -162 c100 -171 104
-175 176 -169 l39 3 3 248 2 248 -52 -3 -53 -3 -5 -158 -5 -158 -94 161 -93
160 -59 0 -59 0 2 -247z"/>
<path d="M5702 2063 l3 -248 170 0 170 0 3 42 3 42 -123 3 -123 3 0 60 0 60
115 5 115 5 0 40 0 40 -117 3 -118 3 0 49 0 49 123 3 122 3 3 43 3 42 -176 0
-175 0 2 -247z"/>
<path d="M3639 1645 c-66 -21 -109 -72 -109 -128 0 -51 28 -100 70 -122 17 -9
72 -25 122 -35 50 -11 97 -25 105 -32 8 -7 13 -25 11 -47 -4 -47 -34 -63 -110
-58 -62 4 -95 24 -100 61 -3 18 -11 21 -51 24 -55 4 -65 -9 -47 -62 27 -83
108 -122 234 -114 122 8 181 57 181 153 0 93 -49 136 -187 161 -104 20 -118
27 -118 63 0 39 21 53 77 54 67 1 90 -9 102 -43 9 -27 14 -30 56 -30 58 0 65
15 34 77 -16 32 -36 53 -60 65 -50 25 -152 32 -210 13z"/>
<path d="M4169 1646 c-105 -28 -160 -102 -167 -227 -6 -101 10 -157 60 -213
51 -58 114 -80 209 -74 86 7 142 40 170 101 28 63 26 67 -31 67 -44 0 -52 -3
-62 -26 -24 -53 -115 -71 -175 -34 -48 29 -67 73 -67 155 0 117 46 169 149
168 44 -1 53 -5 81 -37 26 -30 37 -36 72 -36 48 0 56 9 41 47 -17 46 -69 92
-123 108 -59 18 -95 18 -157 1z"/>
<path d="M5202 1646 c-106 -35 -167 -126 -167 -251 0 -91 24 -152 79 -203 73
-67 187 -82 283 -38 93 44 140 138 131 264 -7 101 -51 172 -130 213 -50 26
-142 33 -196 15z m158 -106 c63 -44 85 -161 45 -244 -49 -103 -195 -100 -247
4 -37 72 -11 211 43 241 59 31 114 31 159 -1z"/>
<path d="M5740 1640 c-145 -50 -206 -244 -123 -392 91 -161 339 -159 428 3 82
151 14 349 -134 393 -70 20 -103 20 -171 -4z m170 -99 c61 -43 82 -175 38
-252 -35 -64 -113 -86 -182 -54 -88 42 -106 229 -28 299 42 37 124 40 172 7z"/>
<path d="M4542 1393 l3 -258 45 0 45 0 3 108 3 107 104 0 104 0 3 -107 3 -108
41 -3 c26 -2 45 2 53 11 8 11 11 82 9 258 l-3 244 -52 3 -53 3 0 -100 0 -101
-105 0 -105 0 0 100 0 100 -50 0 -50 0 2 -257z"/>
<path d="M6162 1393 l3 -258 165 0 165 0 0 45 0 45 -117 3 -118 3 0 209 0 210
-50 0 -50 0 2 -257z"/>
</g>
</svg>
