<?xml version="1.0" encoding="iso-8859-1"?>
<!-- Generator: Adobe Illustrator 19.0.0, SVG Export Plug-In . SVG Version: 6.00 Build 0)  -->
<svg version="1.1" id="Capa_1" xmlns="http://www.w3.org/2000/svg" xmlns:xlink="http://www.w3.org/1999/xlink" x="0px" y="0px"
	 viewBox="0 0 58 58" style="enable-background:new 0 0 58 58;" xml:space="preserve">
<circle style="fill:none;stroke:#95A5A5;stroke-width:2;stroke-miterlimit:10;" cx="28.5" cy="9" r="8"/>
<path style="fill:none;stroke:#95A5A5;stroke-width:2;stroke-miterlimit:10;" d="M39.367,23L35.5,13h-0.079
	c-1.384,2.389-3.962,4-6.921,4s-5.537-1.611-6.921-4H21.5l-3.133,11"/>
<circle style="fill:none;stroke:#95A5A5;stroke-width:2;stroke-miterlimit:10;" cx="28.367" cy="9" r="4"/>
<path style="fill:#546A79;" d="M20.991,21.732l-3.274-0.664c-1.802-0.366-3.56,0.799-3.926,2.601l-2.01,8.412l9.588,2.876l2.223-9.3
	C23.958,23.855,22.793,22.097,20.991,21.732z"/>
<path style="fill:#546A79;" d="M6.7,53.343c-0.366,1.802,0.799,3.56,2.601,3.925l3.274,0.664c1.802,0.366,3.56-0.799,3.925-2.601
	l2.943-12.315l-9.467-3.381L6.7,53.343z"/>
<polygon style="fill:#546A79;" points="10.443,37.68 19.911,41.061 20.904,36.905 11.316,34.029 "/>
<path style="fill:#546A79;" d="M43.962,23.668c-0.366-1.802-2.123-2.967-3.925-2.601l-3.274,0.664
	c-1.802,0.366-2.967,2.123-2.601,3.925l2.293,9.273l9.581-2.874L43.962,23.668z"/>
<path style="fill:#546A79;" d="M47.965,39.855l-9.508,3.169L41.5,55.332c0.366,1.802,2.123,2.967,3.925,2.601l3.274-0.664
	c1.802-0.366,2.967-2.123,2.601-3.925L47.965,39.855z"/>
<polygon style="fill:#546A79;" points="46.517,33.999 36.936,36.874 37.975,41.077 47.483,37.908 "/>
<polygon style="fill:#0096E6;" points="11.316,34.029 20.904,36.905 21.37,34.957 11.782,32.08 "/>
<polygon style="fill:#0096E6;" points="9.976,39.636 19.443,43.017 19.911,41.061 10.443,37.68 "/>
<polygon style="fill:#0096E6;" points="46.036,32.055 36.455,34.93 36.936,36.874 46.517,33.999 "/>
<polygon style="fill:#0096E6;" points="47.483,37.908 37.975,41.077 38.457,43.024 47.965,39.855 "/>
<g>
</g>
<g>
</g>
<g>
</g>
<g>
</g>
<g>
</g>
<g>
</g>
<g>
</g>
<g>
</g>
<g>
</g>
<g>
</g>
<g>
</g>
<g>
</g>
<g>
</g>
<g>
</g>
<g>
</g>
</svg>
