<svg xmlns="http://www.w3.org/2000/svg" xmlns:xlink="http://www.w3.org/1999/xlink" width="180" height="180" viewBox="0 0 180 180"><defs><clipPath id="a"><rect width="180" height="180" fill="#f5f5f8"/></clipPath></defs><g transform="translate(-10 -10)"><g transform="translate(10 10)" clip-path="url(#a)"><g transform="translate(10 35)"><g transform="translate(0)"><path d="M145.482,124.118a40,40,0,0,0-22.114-15.771L102.5,102.5v-15a37.439,37.439,0,0,0,14.972-28.852,10,10,0,1,0,.029-18.311V37.5A37.5,37.5,0,0,0,80,0h0A37.5,37.5,0,0,0,42.5,37.5v2.838a10,10,0,1,0,.029,18.311A37.438,37.438,0,0,0,57.5,87.5v15l-20.868,5.846a40,40,0,0,0-22.114,15.771L0,145.12V160H160V145.12Z" fill="#ffcf83"/><path d="M13.14,7.5A37.412,37.412,0,0,1,0,5.127,37.282,37.282,0,0,0,20.14,11a37.348,37.348,0,0,0,15.5-3.355V0A37.333,37.333,0,0,1,13.14,7.5Z" transform="translate(66.86 87.5)" fill="#f7a74f"/><path d="M7.445,6.959A5.5,5.5,0,0,0,0,.432" transform="translate(36.359 44)" fill="none" stroke="#00004d" stroke-linecap="round" stroke-linejoin="round" stroke-miterlimit="10" stroke-width="2"/><path d="M.2,6.959A5.5,5.5,0,0,1,7.641.432" transform="translate(116 44)" fill="none" stroke="#00004d" stroke-linecap="round" stroke-linejoin="round" stroke-miterlimit="10" stroke-width="2"/></g></g><g transform="translate(70 102.255)"><rect width="40" height="30" fill="none"/><path d="M20,0A10,10,0,0,1,0,0Z" transform="translate(10 4.75)" fill="#fff"/></g><g transform="translate(65 76)"><rect width="50" height="20" fill="none"/><path d="M8,4A4,4,0,1,1,4,0,4,4,0,0,1,8,4" transform="translate(37.5 6)" fill="#00004d"/><path d="M8,4A4,4,0,1,1,4,0,4,4,0,0,1,8,4" transform="translate(4.5 6)" fill="#00004d"/></g><g transform="translate(81.5 76)"><rect width="20" height="30" fill="none"/><path d="M2,0,7,17,0,18" transform="translate(6.5 6)" fill="none" stroke="#00004d" stroke-linecap="round" stroke-linejoin="round" stroke-miterlimit="10" stroke-width="2"/></g><path d="M95,15a15,15,0,0,0-30,0c0,.472.024.939.067,1.4a40.024,40.024,0,0,0-35.171.343A15,15,0,1,0,14.754,29.993,39.809,39.809,0,0,0,7.823,52.5v2.125a9.969,9.969,0,0,1,6.018,3.3l.1-.023,2-10H56.883V33.488L61.8,47.9h17.91l2,10,.092.028a9.969,9.969,0,0,1,6.022-3.3V52.5a39.812,39.812,0,0,0-6.947-22.527A15,15,0,0,0,95,15" transform="translate(42.178 20)" fill="#00004d"/><g transform="translate(10 125)"><path d="M0,40.909V55.789H160V40.909l-14.518-21A40,40,0,0,0,123.368,4.135L108.609,0,80,34.466,51.39,0,36.632,4.135A40,40,0,0,0,14.518,19.906Z" transform="translate(0 14.211)" fill="#006"/></g></g></g></svg>