<?xml version="1.0" encoding="UTF-8"?>
<svg width="65px" height="113px" viewBox="0 0 65 113" version="1.1" xmlns="http://www.w3.org/2000/svg" xmlns:xlink="http://www.w3.org/1999/xlink">
    <!-- Generator: Sketch 49.3 (51167) - http://www.bohemiancoding.com/sketch -->
    <title>Logo</title>
    <desc>Created with Sketch.</desc>
    <defs>
        <polygon id="path-1" points="0.829697917 0.207052083 6.394375 0.207052083 6.394375 7.97861458 0.829697917 7.97861458"></polygon>
        <polygon id="path-3" points="1.0765625 0.465833333 55.4233333 0.465833333 55.4233333 65.5275833 1.0765625 65.5275833"></polygon>
    </defs>
    <g id="Symbols" stroke="none" stroke-width="1" fill="none" fill-rule="evenodd">
        <g id="Global/Nav-One-Colour" transform="translate(-553.000000, -1.000000)">
            <g id="Navigation-">
                <g id="Logo" transform="translate(553.000000, 0.000000)">
                    <path d="M5.79475,113.138594 L5.79475,108.087552 C5.79475,107.522865 5.8150625,107.177552 5.8475625,106.642656 L5.82589583,106.642656 C5.6485,107.073281 5.46027083,107.438906 5.27204167,107.835677 L3.78652083,110.993594 L2.97808333,110.993594 L1.50610417,107.835677 C1.32870833,107.438906 1.14047917,107.040781 0.95225,106.642656 L0.9319375,106.642656 C0.95225,107.177552 0.973916667,107.512031 0.973916667,108.087552 L0.973916667,113.138594 L0.0219375,113.138594 L0.0219375,105.368385 L1.28672917,105.368385 L2.8981875,108.871615 C3.05391667,109.206094 3.211,109.582552 3.35725,109.915677 L3.37891667,109.915677 C3.52516667,109.570365 3.7025625,109.19526 3.85964583,108.849948 L5.49141667,105.368385 L6.74672917,105.368385 L6.74672917,113.138594 L5.79475,113.138594 Z" id="Fill-1" fill="#FFFFFF"></path>
                    <path d="M11.4004583,107.44825 C11.2650417,107.029813 11.17025,106.633042 11.0862917,106.173979 L10.9820208,106.173979 C10.8872292,106.633042 10.804625,107.029813 10.6678542,107.44825 L9.92577083,109.717833 L12.1330625,109.717833 L11.4004583,107.44825 Z M13.2312917,113.138458 L12.4255625,110.596688 L9.64410417,110.596688 L8.81670833,113.138458 L7.84441667,113.138458 L10.3861875,105.366896 L11.714625,105.366896 L14.2563958,113.138458 L13.2312917,113.138458 Z" id="Fill-3" fill="#FFFFFF"></path>
                    <path d="M19.4329688,113.138594 L16.6934896,107.56349 C16.5039063,107.177552 16.2642188,106.706302 16.0651563,106.244531 L16.0434896,106.244531 C16.0759896,106.759115 16.0963021,107.323802 16.0963021,107.865469 L16.0963021,113.138594 L15.1971354,113.138594 L15.1971354,105.368385 L16.5770313,105.368385 L19.2867188,110.795885 C19.4749479,111.172344 19.7254688,111.704531 19.9136979,112.124323 L19.9353646,112.124323 C19.8933854,111.506823 19.8825521,110.900156 19.8825521,110.418073 L19.8825521,105.368385 L20.8033854,105.368385 L20.8033854,113.138594 L19.4329688,113.138594 Z" id="Fill-5" fill="#FFFFFF"></path>
                    <path d="M25.247625,113.284031 C23.4696042,113.284031 22.1100208,112.625906 22.1100208,109.895906 L22.1100208,108.609448 C22.1100208,105.879448 23.4696042,105.24299 25.247625,105.24299 C25.9585625,105.24299 26.7331458,105.367573 27.0459583,105.419031 L27.0459583,106.203094 C26.5652292,106.161115 25.8231458,106.098823 25.247625,106.098823 C23.7837708,106.098823 23.0714792,106.697365 23.0714792,108.609448 L23.0714792,109.895906 C23.0714792,111.809344 23.7837708,112.41601 25.247625,112.41601 C25.8231458,112.41601 26.5652292,112.363198 27.0459583,112.322573 L27.0459583,113.106635 C26.7331458,113.158094 25.9585625,113.284031 25.247625,113.284031" id="Fill-7" fill="#FFFFFF"></path>
                    <polygon id="Fill-9" fill="#FFFFFF" points="33.0499271 113.138594 33.0499271 109.467448 29.1594063 109.467448 29.1594063 113.138594 28.1979479 113.138594 28.1979479 105.368385 29.1594063 105.368385 29.1594063 108.598073 33.0499271 108.598073 33.0499271 105.368385 34.0127396 105.368385 34.0127396 113.138594"></polygon>
                    <polygon id="Fill-11" fill="#FFFFFF" points="35.5811354 113.138594 35.5811354 105.368385 40.1812396 105.368385 40.1812396 106.224219 36.5439479 106.224219 36.5439479 108.671198 39.9618646 108.671198 39.9618646 109.540573 36.5439479 109.540573 36.5439479 112.290885 40.1812396 112.290885 40.1812396 113.138594"></polygon>
                    <polygon id="Fill-13" fill="#FFFFFF" points="49.8673229 106.223677 49.8673229 113.138052 48.9058646 113.138052 48.9058646 106.223677 46.5103438 106.223677 46.5103438 105.36649 52.2628438 105.36649 52.2628438 106.223677"></polygon>
                    <polygon id="Fill-15" fill="#FFFFFF" points="53.1509063 113.138594 53.1509063 105.368385 57.7523646 105.368385 57.7523646 106.224219 54.1123646 106.224219 54.1123646 108.671198 57.5329896 108.671198 57.5329896 109.540573 54.1123646 109.540573 54.1123646 112.290885 57.7523646 112.290885 57.7523646 113.138594"></polygon>
                    <g id="Group-19" transform="translate(58.229167, 105.159437)">
                        <mask id="mask-2" fill="white">
                            <use xlink:href="#path-1"></use>
                        </mask>
                        <g id="Clip-18"></g>
                        <path d="M2.66188542,1.06423958 L1.79251042,1.06423958 L1.79251042,4.10840625 L2.69167708,4.10840625 C4.20969792,4.10840625 4.93146875,3.80507292 4.93146875,2.58090625 C4.93146875,1.28496875 4.16636458,1.06423958 2.66188542,1.06423958 Z M5.25511458,7.97861458 L3.42428125,4.94528125 C3.21573958,4.95476042 2.92188542,4.95476042 2.69167708,4.95476042 L1.79251042,4.95476042 L1.79251042,7.97861458 L0.829697917,7.97861458 L0.829697917,0.207052083 L2.66188542,0.207052083 C4.46021875,0.207052083 5.90376042,0.584864583 5.90376042,2.58090625 C5.90376042,3.82538542 5.34855208,4.43340625 4.44803125,4.74757292 L6.39532292,7.97861458 L5.25511458,7.97861458 Z" id="Fill-17" fill="#FFFFFF" mask="url(#mask-2)"></path>
                    </g>
                    <path d="M44.5855313,109.005948 L43.2489688,108.420948 C42.4202188,108.053969 42.2008438,107.720844 42.2008438,107.123656 C42.2008438,106.319281 42.7763646,106.076885 43.8014688,106.076885 C44.4094896,106.076885 45.1068854,106.132406 45.6011563,106.181156 L45.6011563,105.388969 C45.1773021,105.318552 44.4731354,105.242719 43.7689688,105.242719 C42.0667813,105.242719 41.2285521,105.848031 41.2285521,107.123656 C41.2285521,108.200219 41.7932396,108.764906 42.8278229,109.225323 L44.1576146,109.823865 C44.9823021,110.197615 45.2125104,110.555115 45.2125104,111.172615 C45.2125104,112.08126 44.6803229,112.446885 43.6227188,112.446885 C42.7465729,112.446885 42.0234479,112.38324 41.4059479,112.311469 L41.4059479,113.064385 C41.6889688,113.138865 42.6829271,113.28376 43.6227188,113.28376 C45.3398021,113.28376 46.1956354,112.521365 46.1956354,111.172615 C46.1956354,110.08251 45.6742813,109.486677 44.5855313,109.005948" id="Fill-20" fill="#FFFFFF"></path>
                    <path d="M4.16148958,101.806656 C2.82628125,101.806656 1.42607292,101.512802 0.19378125,100.864156 C0.08815625,100.808635 0.0380520833,100.77749 0.0380520833,100.648844 L0.0177395833,98.9466563 C0.0177395833,98.8396771 0.0868020833,98.6785313 0.212739583,98.7313438 C1.88242708,99.4395729 2.42003125,99.5804063 3.54263542,99.6305104 C5.09451042,99.6982188 6.77503125,99.2851979 6.77503125,97.6926979 C6.77503125,94.5456146 0.000135416667,95.2782188 0.000135416667,90.5183229 C0.000135416667,87.1992604 3.13503125,86.6169688 5.76753125,86.6169688 C7.06617708,86.6169688 8.59232292,87.0516563 9.27888542,87.3644688 L9.41565625,87.5378021 L9.41565625,87.5797813 L9.18138542,89.2386354 L9.02701042,89.3659271 L8.98773958,89.3659271 C7.88815625,88.9989479 7.08378125,88.7890521 6.25232292,88.7484271 C4.74648958,88.6793646 3.27044792,88.9867604 3.27044792,90.3666563 C3.27044792,92.8434271 10.0656563,92.5428021 10.0656563,97.1307188 C10.0656563,100.750406 7.33565625,101.806656 4.16148958,101.806656" id="Fill-22" fill="#FFFFFF"></path>
                    <path d="M18.3591146,95.7314583 C18.3591146,95.6014583 18.3198438,95.5594792 18.1654688,95.5594792 L16.6948438,95.5594792 C15.1659896,95.5594792 14.3521354,95.9684375 14.3521354,97.4539583 C14.3521354,99.0478125 15.1849479,99.5420833 16.6948438,99.5420833 L18.1465104,99.5420833 C18.3198438,99.5420833 18.3591146,99.4797917 18.3591146,99.328125 L18.3591146,95.7314583 Z M21.5346354,101.008646 C21.5346354,101.160313 21.4953646,101.267292 21.3030729,101.311979 C19.8310938,101.505625 18.0097396,101.784583 16.3468229,101.784583 C13.2877604,101.784583 11.1007813,100.856979 11.1007813,97.5609375 C11.1007813,94.3298958 13.2295313,93.5553125 15.6873438,93.5553125 C16.4429688,93.5553125 17.7023438,93.705625 18.3198438,93.7909375 C18.3198438,91.853125 17.6427604,91.0758333 15.4165104,91.0758333 C14.6811979,91.0758333 13.6750521,91.1638542 12.8408854,91.2288542 L12.7853646,91.2288542 C12.6485937,91.2288542 12.6106771,91.1638542 12.5714062,91.0325 L12.3967187,89.4833333 L12.3967187,89.44 L12.5510938,89.2666667 C13.5585938,89.139375 15.2431771,89.009375 16.4822396,89.009375 C19.5602604,89.009375 21.5346354,90.23625 21.5346354,93.6826042 L21.5346354,101.008646 Z" id="Fill-24" fill="#FFFFFF"></path>
                    <path d="M26.4015104,101.52499 L23.5577604,101.52499 C23.4196354,101.52499 23.3817188,101.461344 23.3817188,101.312385 L23.3817188,85.1937396 C23.3817188,85.0678021 23.4196354,85.0028021 23.5577604,84.9581146 L26.3825521,84.7428021 C26.5179687,84.7428021 26.5951563,84.8064479 26.5951563,84.9581146 L26.5951563,101.312385 C26.5951563,101.461344 26.5572396,101.52499 26.4015104,101.52499" id="Fill-26" fill="#FFFFFF"></path>
                    <path d="M40.3246458,90.9693958 C38.4856875,90.9693958 37.8275625,92.1773125 37.8275625,95.4733542 C37.8275625,98.5960625 38.5439167,99.7592917 40.3246458,99.7592917 C42.1446458,99.7592917 42.8027708,98.5540833 42.8027708,95.4733542 C42.8027708,92.1542917 42.1446458,90.9693958 40.3246458,90.9693958 M40.3246458,101.763458 C36.7239167,101.763458 34.5951667,99.6509583 34.5951667,95.4936667 C34.5951667,90.9693958 36.8606875,89.0302292 40.3246458,89.0302292 C43.7899583,89.0302292 46.0365208,90.9260625 46.0365208,95.4936667 C46.0365208,99.6306458 43.9267292,101.763458 40.3246458,101.763458" id="Fill-28" fill="#FFFFFF"></path>
                    <path d="M60.7706667,91.2285833 C60.2506667,91.18525 59.7848333,91.1405625 59.2066042,91.1405625 C57.3825417,91.1405625 56.3980625,92.3891042 56.3980625,95.3438958 C56.3980625,98.2716042 57.4813958,99.5431667 59.3975417,99.5431667 C59.8417083,99.5431667 60.4036875,99.4795208 60.7706667,99.4145208 L60.92775,99.1775417 L60.92775,91.4655625 C60.92775,91.3355625 60.8668125,91.2488958 60.7706667,91.2285833 M63.8906667,101.288688 C62.5134792,101.525667 61.1010833,101.784313 59.3975417,101.784313 C55.7385833,101.784313 53.1060833,100.105146 53.1060833,95.1719167 C53.1060833,90.4309792 55.5638958,88.9874375 58.3142083,88.9874375 C59.1063958,88.9874375 60.3657708,89.1594167 60.7923333,89.20275 L60.8316042,89.20275 L60.9656667,89.0294167 L60.9656667,85.2607708 C60.9656667,85.10775 61.0428542,85.0237917 61.179625,84.9791042 L63.9082708,84.7651458 C64.064,84.7868125 64.1398333,84.9154583 64.1398333,85.0441042 L64.1398333,100.944729 C64.1398333,101.116708 64.064,101.267021 63.8906667,101.288688" id="Fill-30" fill="#FFFFFF"></path>
                    <path d="M52.9101354,91.1201146 C52.0800313,91.1417813 51.4611771,91.2067813 50.5877396,91.2704271 L50.4130521,91.4654271 L50.4130521,101.288552 C50.4130521,101.46324 50.3561771,101.526885 50.2221146,101.526885 L47.3946146,101.526885 C47.2781563,101.526885 47.1996146,101.46324 47.1996146,101.311573 L47.1996146,89.8905313 C47.1996146,89.7415729 47.2578438,89.6549063 47.3946146,89.6129271 C48.7108646,89.4179271 51.4015938,89.1809479 52.9494063,89.1173021 C53.0672188,89.1173021 53.1254479,89.2026146 53.1254479,89.3326146 L53.1254479,90.9251146 C53.1254479,91.0348021 53.0482604,91.1201146 52.9101354,91.1201146" id="Fill-32" fill="#FFFFFF"></path>
                    <path d="M35.1513229,82.5375417 C34.4891354,82.5375417 33.7944479,82.3912917 33.1823646,82.069 L33.1065313,81.9620208 L33.0970521,81.1170208 L33.1918438,81.0113958 C34.0205938,81.3634792 34.2873646,81.4311875 34.8425729,81.4582708 C35.5331979,81.492125 36.7871563,81.3892083 36.7871563,80.49275 C36.7871563,78.7215 33.0862188,79.298375 33.0862188,76.9367083 C33.0862188,75.2900417 34.6421563,75.0029583 35.9489271,75.0029583 C36.5908021,75.0029583 37.2137188,75.1451458 37.5549688,75.2995208 L37.6240313,75.3861875 L37.6240313,75.4065 L37.5062188,76.2298333 L37.4317396,76.2934792 C36.8724688,76.1242083 36.6503854,76.0741042 36.1994479,76.0388958 C35.3869479,75.9779583 34.2873646,76.0673333 34.2765313,76.8622292 C34.2535104,78.2461875 37.9761146,77.9415 37.9761146,80.2178542 C37.9761146,82.012125 36.7262188,82.5375417 35.1513229,82.5375417" id="Fill-34" fill="#FFFFFF"></path>
                    <path d="M6.20601042,79.2461042 C6.20601042,81.4114167 4.96694792,82.5462083 3.11309375,82.5462083 C1.23757292,82.5462083 0.02153125,81.3992292 0.02153125,79.2718333 L0.02153125,73.8186042 L0.137989583,73.6777708 L1.13330208,73.6777708 L1.23757292,73.8186042 L1.23757292,79.1282917 C1.23757292,80.7668333 1.84017708,81.3992292 3.13746875,81.3992292 C4.34132292,81.3992292 4.97913542,80.7532917 4.97913542,79.1431875 L4.97913542,73.8186042 L5.09423958,73.6777708 L6.08955208,73.6777708 L6.21819792,73.8050625 L6.20601042,79.2461042 Z" id="Fill-36" fill="#FFFFFF"></path>
                    <path d="M13.0687917,82.441125 L12.0626458,82.441125 L11.9570208,82.3124792 L11.9570208,77.9168542 C11.9570208,76.50175 11.3205625,76.0995625 10.0693125,76.0995625 C9.67525,76.0995625 9.09702083,76.152375 8.72597917,76.1902917 L8.6230625,76.3202917 L8.6230625,82.3124792 L8.50795833,82.441125 L7.49910417,82.441125 L7.384,82.3124792 L7.384,75.4820625 L7.5099375,75.3276875 C8.43754167,75.1733125 9.48025,75.031125 10.1167083,75.031125 C12.01525,75.031125 13.1730625,75.648625 13.1730625,77.8288333 L13.1730625,82.3124792 L13.0687917,82.441125" id="Fill-38" fill="#FFFFFF"></path>
                    <path d="M15.5721042,82.441125 L14.5646042,82.441125 L14.4589792,82.3124792 L14.4589792,75.2112292 L14.5740833,75.0825833 L15.5599167,75.0825833 L15.6750208,75.1976875 L15.6750208,82.3124792 L15.5721042,82.441125 Z M15.6750208,74.0425833 L15.5721042,74.1725833 L14.5646042,74.1725833 L14.4589792,74.0290417 L14.4589792,72.9714375 L14.5646042,72.8441458 L15.5721042,72.8441458 L15.6750208,72.9714375 L15.6750208,74.0425833 Z" id="Fill-40" fill="#FFFFFF"></path>
                    <polygon id="Fill-42" fill="#FFFFFF" points="22.2979792 75.083125 21.3026667 75.083125 21.1862083 75.1725 19.5706875 81.2811458 19.4948542 81.3651042 19.4230833 81.2946875 17.8630833 75.1846875 17.746625 75.083125 16.657875 75.083125 16.5414167 75.1467708 16.5536042 75.1846875 18.6620417 82.3130208 18.7893333 82.4416667 20.1326667 82.4416667 20.2938125 82.3008333 22.3805833 75.1982292 22.3887083 75.1467708"></polygon>
                    <path d="M25.6192083,76.0616458 C24.4844167,76.0616458 23.7545208,76.7590417 23.7545208,78.1890417 L23.8601458,78.3176875 L27.4486875,78.3176875 L27.5759792,78.2025833 C27.542125,76.7590417 26.7770208,76.0616458 25.6192083,76.0616458 M28.7107708,79.3360208 L23.8709792,79.3360208 L23.7667083,79.467375 C23.81275,81.0883125 24.7972292,81.449875 26.2218125,81.449875 C26.7553542,81.449875 27.3457708,81.3984167 27.9700417,81.3469583 L28.0743125,81.4376875 L28.0743125,81.4620625 L27.9700417,82.2474792 L27.8305625,82.3639375 C27.2645208,82.4560208 26.5684792,82.5305 25.82775,82.5305 C23.8466042,82.5305 22.5154583,81.6177917 22.5154583,78.7428958 C22.5154583,75.9722708 23.950875,75.031125 25.6882708,75.031125 C27.8075417,75.031125 28.8150417,76.3460208 28.8150417,79.2060208 L28.7107708,79.3360208" id="Fill-44" fill="#FFFFFF"></path>
                    <path d="M40.1354688,82.441125 L39.1293229,82.441125 L39.0236979,82.3124792 L39.0236979,75.2112292 L39.1401563,75.0825833 L40.1232813,75.0825833 L40.2410938,75.1976875 L40.2410938,82.3124792 L40.1354688,82.441125 Z M40.2410938,74.0425833 L40.1354688,74.1725833 L39.1293229,74.1725833 L39.0236979,74.0290417 L39.0236979,72.9714375 L39.1293229,72.8441458 L40.1354688,72.8441458 L40.2410938,72.9714375 L40.2410938,74.0425833 Z" id="Fill-46" fill="#FFFFFF"></path>
                    <path d="M45.1527917,82.2744271 L45.0133125,82.3895313 C44.5149792,82.4545313 44.2251875,82.5073438 43.8202917,82.5073438 C42.7207083,82.5073438 42.2332083,81.9643229 42.2332083,80.6643229 L42.2332083,76.0899479 L42.11675,75.9572396 L41.3299792,75.9572396 L41.2135208,75.8177604 L41.2135208,75.1975521 L41.3299792,75.0824479 L42.1302917,75.0824479 L42.2332083,74.9510937 L42.2332083,73.2665104 L42.3496667,73.1121354 L43.3341458,72.9943229 L43.4600833,73.1229687 L43.4600833,74.9510937 L43.5778958,75.0824479 L44.8264375,75.0824479 L44.9428958,75.2110938 L44.9428958,75.8299479 L44.8264375,75.9464062 L43.5778958,75.9464062 L43.4600833,76.0899479 L43.4600833,80.3149479 C43.4600833,81.0624479 43.5643542,81.3725521 44.4337292,81.3725521 L45.13925,81.3725521 L45.2557083,81.5011979 L45.1527917,82.2744271 Z" id="Fill-48" fill="#FFFFFF"></path>
                    <path d="M32.4145521,76.1040313 C31.9053854,76.1040313 31.5235104,76.1433021 31.0251771,76.1839271 L30.8992396,76.3112187 L30.8992396,82.3128854 L30.7936146,82.4415312 L29.7874688,82.4415312 L29.6845521,82.3128854 L29.6845521,75.4865312 L29.7983021,75.3199688 C30.5850729,75.2021563 31.4883021,75.0613229 32.4253854,75.0220521 L32.5310104,75.1520521 L32.5310104,76.0024688 L32.4145521,76.1040313" id="Fill-50" fill="#FFFFFF"></path>
                    <path d="M51.7742604,75.083125 L50.7450938,75.083125 L50.6272813,75.1725 L49.0997812,81.2811458 L49.0293646,81.3691667 L48.9372813,81.2689583 L47.1985313,75.1725 L47.0712396,75.083125 L45.9933229,75.083125 L45.8849896,75.1535417 L45.8904063,75.1846875 L47.8959271,81.9934375 C48.0150937,82.3482292 48.3482188,82.4321875 48.4457188,82.4403125 L48.4768646,82.4403125 L48.5648854,82.558125 C48.5648854,82.558125 48.5581146,82.6515625 48.4809271,82.8411458 C48.2304063,83.5263542 47.4720729,84.4566667 47.1782188,84.76 L47.1538438,84.8263542 L47.2459271,84.9157292 L48.3360312,84.9157292 L48.4971771,84.8263542 C49.4383229,83.7944792 50.0612396,82.1071875 50.3970729,80.8302083 L51.8555104,75.1846875 L51.8555104,75.1725 L51.7742604,75.083125" id="Fill-52" fill="#FFFFFF"></path>
                    <path d="M33.9889063,84.3400729 C33.4188021,84.3400729 29.8790104,84.7761146 29.5011979,88.9875729 C29.4822396,89.1581979 29.4036979,89.2245521 29.2682813,89.2245521 L27.9330729,89.2245521 C27.7976563,89.2245521 27.7583854,89.2881979 27.7583854,89.4398646 L27.7583854,90.9253854 C27.7583854,91.0770521 27.7976563,91.1406979 27.9520313,91.1406979 L29.1910938,91.1203854 C29.3468229,91.1203854 29.3847396,91.2287188 29.3847396,91.3790313 L29.3847396,101.267156 C29.3847396,101.439135 29.4619271,101.525802 29.5973438,101.525802 L32.4045313,101.525802 C32.5413021,101.525802 32.5968229,101.439135 32.5968229,101.267156 L32.5968229,91.3790313 C32.5968229,91.2070521 32.6564063,91.1406979 32.7904688,91.1406979 L34.3585938,91.1406979 C34.4940104,91.1406979 34.5535938,91.0567396 34.5535938,90.9253854 L34.5535938,89.4398646 C34.5535938,89.3098646 34.4940104,89.2245521 34.3409896,89.2245521 L32.7349479,89.2245521 C32.5589063,89.2245521 32.5413021,89.1581979 32.5413021,88.9875729 C32.7105729,87.5508021 33.5731771,86.4742396 34.7133854,85.9908021 L34.7702604,85.9596563 L34.7986979,85.9393438 L34.8284896,85.9136146 L34.8284896,85.9122604 L34.8420313,85.8933021 L34.8528646,85.8729896 L34.8555729,85.8662188 L34.8352604,85.7267396 L34.8163021,85.6793438 L34.2299479,84.5079896 L33.9889063,84.3400729" id="Fill-54" fill="#FFFFFF"></path>
                    <path d="M56.980625,76.02725 C55.8255208,76.02725 54.8803125,76.7192292 54.8803125,78.8344375 C54.8803125,80.682875 55.745625,81.4669375 57.0036458,81.4669375 C58.2630208,81.4669375 59.1378125,80.6571458 59.1378125,78.8344375 C59.1378125,76.7070417 58.1709375,76.02725 56.980625,76.02725 M56.980625,82.5556875 C55.2648958,82.5556875 53.6466667,81.3504792 53.6466667,78.8344375 C53.6466667,76.2195417 55.0902083,75.0129792 56.9928125,75.0129792 C58.9048958,75.0129792 60.3497917,76.1938125 60.3497917,78.8344375 C60.3497917,81.3233958 58.7884375,82.5556875 56.980625,82.5556875" id="Fill-56" fill="#FFFFFF"></path>
                    <path d="M63.8440833,72.6021563 C63.5150208,72.6062188 61.72075,73.0855938 61.5514792,74.9435104 L61.412,75.0829896 L60.6198125,75.0829896 L60.5168958,75.2143438 L60.5168958,75.8304896 L60.6306458,75.9591354 L61.3673125,75.9591354 L61.4824167,76.1135104 L61.4824167,82.2858021 L61.6083542,82.4415313 L62.6036667,82.4415313 L62.7174167,82.2858021 L62.7174167,76.0864271 L62.8311667,75.9469479 L64.0241875,75.9469479 L64.1392917,75.8196563 L64.1392917,75.2143438 L64.012,75.0829896 L62.8284583,75.0829896 L62.7241875,74.9435104 C62.8609583,74.0985104 63.4622083,73.5108021 64.15825,73.2359063 L64.1758542,73.1235104 L63.938875,72.6468438 L63.8440833,72.6021563" id="Fill-58" fill="#FFFFFF"></path>
                    <path d="M36.3692604,62.3110313 C36.1187396,61.9955104 35.8330104,61.7097813 35.5174896,61.4606146 C35.8330104,61.7097813 36.1187396,61.9955104 36.3692604,62.3110313" id="Fill-60" fill="#FFFFFF"></path>
                    <path d="M33.1273854,60.4120833 C33.2804062,60.4364583 33.4307188,60.4676042 33.5783229,60.5041667 C33.4307188,60.4676042 33.2804062,60.4364583 33.1273854,60.4120833" id="Fill-62" fill="#FFFFFF"></path>
                    <path d="M36.4618854,62.4353438 C36.5553229,62.5612813 36.6433438,62.6912813 36.7245938,62.8253438 C36.6433438,62.6912813 36.5553229,62.5612813 36.4618854,62.4353438" id="Fill-64" fill="#FFFFFF"></path>
                    <path d="M34.8696563,61.0217292 C34.5202813,60.8240208 34.1465313,60.662875 33.7511146,60.5477708 C34.1465313,60.662875 34.5202813,60.8240208 34.8696563,61.0217292" id="Fill-66" fill="#FFFFFF"></path>
                    <path d="M32.9448438,60.3843229 C32.7363021,60.3572396 32.5250521,60.3409896 32.3097396,60.3409896 C31.0598438,60.3409896 29.9142188,60.7838021 29.0204688,61.5231771 C29.9142188,60.7838021 31.0611979,60.3409896 32.3097396,60.3409896 C32.5250521,60.3409896 32.7363021,60.3572396 32.9448438,60.3843229" id="Fill-68" fill="#FFFFFF"></path>
                    <path d="M35.3919583,61.3655521 C35.267375,61.2734688 35.1387292,61.1854479 35.0060208,61.1041979 C35.1387292,61.1854479 35.267375,61.2734688 35.3919583,61.3655521" id="Fill-70" fill="#FFFFFF"></path>
                    <path d="M37.0119479,52.6183125 C36.8115313,52.5113333 36.6002813,52.4449792 36.3633021,52.4151875 C36.1642396,52.3894583 35.9164271,52.4097708 35.7133021,52.4382083 C35.2921563,52.508625 34.8994479,52.6413333 34.5229896,52.77675 C33.7741354,53.0489375 33.0442396,53.3387292 32.3116354,53.337375 C31.5763229,53.3387292 30.8491354,53.0489375 30.0989271,52.77675 C29.7211146,52.6413333 29.3297604,52.508625 28.9072604,52.4368542 C28.4901771,52.3677917 28.0053854,52.3989375 27.6099688,52.6196667 C27.2131979,52.8376875 26.9098646,53.2060208 26.7879896,53.6420625 C26.6688229,54.0605 26.7175729,54.53175 26.9383021,54.9109167 C27.4068438,55.6001875 28.0338229,56.1256042 28.7298646,56.5196667 L28.7176771,56.5101875 L28.7298646,56.5183125 C28.9668438,56.6781042 29.2268438,56.8568542 29.5003854,57.074875 L29.5017396,57.0762292 C29.5017396,57.0762292 28.9086146,56.5101875 28.5714271,56.0226875 C28.2328854,55.5351875 27.9065313,54.3001875 29.0372604,54.5737292 C30.1666354,54.8499792 30.3480938,55.27925 32.3129896,55.27925 C34.2765313,55.27925 34.4593438,54.8499792 35.5873646,54.5750833 C36.7180938,54.3001875 36.3917396,55.5351875 36.0531979,56.0226875 C35.7160104,56.5101875 35.1242396,57.074875 35.1242396,57.074875 L35.1269479,57.074875 C35.4004896,56.8582083 35.6577813,56.6794583 35.8947604,56.5183125 L35.8961146,56.5169583 C36.5921563,56.12425 37.2177813,55.6015417 37.6890313,54.9068542 C38.1440313,54.149875 37.8379896,53.0408125 37.0119479,52.6183125" id="Fill-72" fill="#FFFFFF"></path>
                    <path d="M32.3106875,60.3419375 C32.4745417,60.3419375 32.6343333,60.3595417 32.7954792,60.3730833 C32.7846458,59.9113125 32.7819375,59.4481875 32.7480833,58.9850625 C32.6939167,58.257875 32.6126667,57.5333958 32.452875,56.8062083 C32.2808958,57.5293333 32.1888125,58.2538125 32.1238125,58.981 C32.0831875,59.4387083 32.0750625,59.8964167 32.0574583,60.354125 L32.3106875,60.3419375" id="Fill-74" fill="#FFFFFF"></path>
                    <path d="M43.1017708,50.4244271 C42.0455208,52.2742188 40.893125,54.0535938 39.69875,55.8031771 C39.5294792,55.9561979 39.3710417,56.1268229 39.2315625,56.3191146 C38.9241667,56.7429688 38.7169792,57.1167188 38.5490625,57.4660938 C38.3757292,57.7111979 38.2064583,57.9576563 38.033125,58.2027604 C37.3560417,59.1425521 36.6667708,60.0742188 35.9680208,60.9977604 L35.6836458,60.8691146 L35.4155208,60.5766146 C36.0601042,59.6219271 36.7141667,58.6740104 37.3804167,57.7355729 L37.5144792,57.5514063 C37.9410417,57.2142188 38.406875,56.7795313 38.9092708,56.0861979 C39.1611458,55.7408854 39.3358333,55.3563021 39.4373958,54.9527604 C40.6073958,53.4076563 41.8126042,51.8869271 43.1004167,50.4244271 C41.6392708,51.3791146 40.2011458,52.3663021 38.7684375,53.3616146 C38.805,53.4821354 38.8429167,53.6026563 38.8645833,53.7285938 C38.975625,54.4300521 38.8077083,55.1342188 38.3892708,55.7097396 C37.7108333,56.6454688 37.1244792,57.0584896 36.5570833,57.4593229 C36.0289583,57.8330729 35.4832292,58.2190104 34.9266667,58.9854688 C34.4513542,59.6408854 34.5109375,60.5197396 35.0133333,61.1101563 C35.2367708,61.2469271 35.4466667,61.4040104 35.6470833,61.5719271 C36.3769792,61.8847396 37.2301042,61.6653646 37.708125,61.0058854 C38.2660417,60.2394271 38.4651042,59.6002604 38.6546875,58.9827604 C38.861875,58.3192188 39.073125,57.6326563 39.7515625,56.6982813 C40.2079167,56.0699479 40.885,55.7029688 41.6,55.6190104 C42.1186458,53.8951563 42.6305208,52.1685938 43.1017708,50.4271354 L43.1017708,50.4244271 Z" id="Fill-76" fill="#FFFFFF"></path>
                    <path d="M27.4343333,61.4793021 C27.9069375,61.7569063 28.4743333,61.7772188 28.96725,61.5686771 C29.1690208,61.3966979 29.3870417,61.2450312 29.6145417,61.1055521 C30.1142292,60.5151354 30.1711042,59.6389896 29.6985,58.9862813 C29.1405833,58.2198229 28.5935,57.8325313 28.0694375,57.4601354 C27.4993333,57.0593021 26.9129792,56.6449271 26.2358958,55.7091979 C25.8174583,55.1350313 25.6481875,54.4308646 25.7592292,53.7294063 C25.7795417,53.6021146 25.8188125,53.4802396 25.855375,53.3597187 C24.4226667,52.3657604 22.9845417,51.3799271 21.5233958,50.4252396 L21.5206875,50.4238854 C22.8112083,51.8863854 24.0177708,53.4084688 25.1877708,54.9562813 C25.2893333,55.3571146 25.4640208,55.7416979 25.7145417,56.0870104 C26.2142292,56.7749271 26.676,57.2082604 27.1025625,57.5454479 L27.2420417,57.7363854 C27.9082917,58.6748229 28.5623542,59.6213854 29.2069375,60.5760729 L28.9374583,60.8685729 L28.6530833,60.9958646 C27.9543333,60.0723229 27.2650625,59.1420104 26.5893333,58.2035729 C26.4173542,57.9611771 26.2494375,57.7174271 26.0788125,57.4736771 C25.9108958,57.1229479 25.7023542,56.7478438 25.39225,56.3199271 C25.2527708,56.1289896 25.0943333,55.9556563 24.921,55.7999271 C23.7279792,54.0503438 22.5769375,52.2709688 21.5206875,50.4238854 L21.5220417,50.4238854 L21.5206875,50.4238854 C21.9919375,52.1653438 22.5051667,53.8946146 23.0251667,55.6198229 C23.385375,55.6618021 23.7401667,55.7741979 24.0651667,55.9651354 C24.3820417,56.1506562 24.6555833,56.3971146 24.8708958,56.6977396 C25.5506875,57.6334687 25.7632917,58.3200313 25.969125,58.9822188 C26.1600625,59.6010729 26.3564167,60.2388854 26.9143333,61.0053438 C27.0538125,61.2003437 27.2285,61.3601354 27.4343333,61.4793021" id="Fill-78" fill="#FFFFFF"></path>
                    <path d="M55.7322188,14.8795833 L53.1931563,20.3585417 C49.3730521,18.5886458 45.2888854,17.2927083 41.0164896,16.5384375 L42.0659688,10.5882292 C38.8674271,10.0235417 35.5849271,9.7378125 32.3119063,9.7378125 L32.3037813,9.7378125 C30.7979479,9.7378125 29.2758646,9.79875 27.7795104,9.91927083 L28.2643021,15.94125 C23.9228438,16.2919792 19.7384688,17.1938542 15.7829479,18.5872917 L13.7774271,12.8916667 C11.0826354,13.8409375 8.46503125,15.0028125 5.94763542,16.355625 L5.94763542,22.5265625 C5.94763542,23.668125 5.99773958,24.7758333 6.07086458,25.8686458 L10.5626354,23.1508333 C10.8930521,22.9517708 11.2627396,22.8502083 11.6595104,22.8502083 C12.3040938,22.8502083 12.9324271,23.1305208 13.4348229,23.5936458 L11.9696146,24.1475 L11.6608646,24.09875 C11.4943021,24.09875 11.3372188,24.139375 11.2072188,24.2179167 L6.18461458,27.2553125 C6.28888542,28.3467708 6.41753125,29.4219792 6.58951042,30.4646875 L12.7360729,26.7461458 L12.9852396,26.4834375 L14.4220104,25.9404167 L14.3935729,26.2897917 C14.2730521,26.950625 13.9128438,27.4909375 13.3806563,27.8132292 L7.06617708,31.6333333 L6.83190625,31.7335417 C8.30117708,39.3141667 11.4604479,45.5176042 15.0828438,50.4427083 C15.6028438,50.6038542 16.1255521,50.7609375 16.6509688,50.9126042 L16.6279479,50.9464583 L16.6563854,50.9166667 L16.6509688,50.9126042 L7.87867708,33.7891667 L22.1922188,46.6442708 C21.3377396,43.6055208 20.6078438,40.5220833 20.8096146,37.123125 C20.8041979,33.7945833 21.7290938,30.1478125 19.4066979,27.60875 C22.8327396,29.7727083 23.0114896,33.0430208 24.1205521,35.9964583 C25.0210729,39.0189583 26.8546146,41.7259375 28.8140938,44.3895833 L28.7897188,44.3990625 L28.8154479,44.3936458 L28.8140938,44.3895833 L32.3105521,25.471875 L35.8083646,44.3895833 C36.9851354,41.4605208 38.2878438,38.5720833 40.5235729,36.0032292 C42.5507604,33.36125 45.5069063,31.0375 45.2157604,27.60875 C46.6119063,31.4139583 44.7580521,34.1128125 43.8331563,37.1298958 C42.7024271,40.0752083 42.5033646,43.33875 42.4302396,46.6442708 L42.4234688,46.6415625 L42.4288854,46.6442708 L42.4302396,46.6442708 L56.7437813,33.7891667 L47.9728438,50.9126042 L47.9674271,50.9166667 L47.9945104,50.9464583 L47.9728438,50.9126042 C48.6594063,50.5063542 49.3513854,50.1082292 50.0582604,49.7290625 C53.4477396,44.9434375 56.3659688,39.0027083 57.7715938,31.8269792 C57.6172188,31.776875 57.4628438,31.7186458 57.3206563,31.6319792 L51.0048229,27.8132292 C50.4726354,27.4909375 50.1151354,26.950625 49.9946146,26.2897917 L49.9634688,25.9404167 L51.3853438,26.4780208 L51.6494063,26.7461458 L57.9652396,30.56625 L58.0153438,30.5865625 C58.1873229,29.5492708 58.3186771,28.4794792 58.4256563,27.3907292 L53.1782604,24.2179167 C53.0496146,24.139375 52.8911771,24.09875 52.7246146,24.09875 L52.4158646,24.1475 L50.9520104,23.5936458 C51.4530521,23.1305208 52.0827396,22.8502083 52.7259688,22.8502083 C53.1227396,22.8502083 53.4937813,22.9517708 53.8228438,23.1508333 L58.5407604,26.0040625 C58.6193021,24.8679167 58.6748229,23.7155208 58.6748229,22.5265625 L58.6748229,16.3542708 C57.7079479,15.835625 56.7275313,15.3413542 55.7322188,14.8795833 Z M36.7765938,18.3909375 L37.1070104,18.4180208 L44.3937813,19.5961458 C45.0072188,19.695 45.5448229,20.0619792 45.9023229,20.629375 C46.1284688,20.9895833 46.2571146,21.4039583 46.3031563,21.8372917 L44.8338854,21.2820833 C44.6754479,21.0410417 44.4574271,20.8690625 44.1947188,20.8257292 L36.9093021,19.6476042 C36.6804479,19.6096875 36.4434688,19.6828125 36.2335729,19.8290625 L34.6356563,19.8290625 C35.0730521,18.9691667 35.8896146,18.3909375 36.7765938,18.3909375 Z M18.4831563,20.629375 C18.8420104,20.0619792 19.3782604,19.695 19.9916979,19.5961458 L27.2784688,18.4180208 L27.6088854,18.3909375 C28.4985729,18.3909375 29.3124271,18.9691667 29.7498229,19.8290625 L28.1573229,19.8290625 C27.9460729,19.6828125 27.7104479,19.6096875 27.4775313,19.6476042 L20.1907604,20.8257292 C19.9294063,20.8677083 19.7100313,21.0396875 19.5515938,21.2820833 L18.0823229,21.8372917 C18.1283646,21.4039583 18.2570104,20.9895833 18.4831563,20.629375 Z M12.3487813,26.3480208 L12.1266979,26.3940625 C11.8233646,26.3940625 11.6987812,26.1232292 11.5295104,25.6763542 C11.3263854,25.13875 11.2370104,24.8015625 11.6987812,24.626875 L20.2313854,21.4026042 L20.4534688,21.3552083 C20.7568021,21.3552083 20.8813854,21.6273958 21.0506563,22.0729167 C21.2415938,22.579375 21.3404479,22.9504167 20.8813854,23.1223958 L12.3487813,26.3480208 Z M28.1478438,23.7940625 L20.8610729,24.9735417 L20.5306563,24.9992708 C19.9104479,24.9992708 19.3308646,24.7148958 18.8853438,24.2544792 L20.3031563,23.7182292 L20.5360729,23.7534375 L20.6620104,23.7426042 L27.9487813,22.5644792 C28.0896146,22.5414583 28.2196146,22.4683333 28.3401354,22.3735417 L29.8513854,22.3735417 C29.5358646,23.115625 28.9237813,23.6694792 28.1478438,23.7940625 Z M27.6319063,22.0214583 C27.1403438,22.0214583 27.1024271,21.6395833 27.1024271,21.100625 C27.1024271,20.5616667 27.1403438,20.1797917 27.6319063,20.1797917 L36.7535729,20.1797917 C37.2478438,20.1797917 37.2830521,20.5278125 37.2830521,21.100625 C37.2830521,21.6395833 37.2464896,22.0214583 36.7535729,22.0214583 L27.6319063,22.0214583 Z M43.5244063,24.9721875 L36.2376354,23.7940625 C35.6241979,23.6952083 35.0879479,23.3282292 34.7290938,22.7608333 C34.6532604,22.6389583 34.5923229,22.50625 34.5354479,22.3735417 L36.0250313,22.3735417 C36.1455521,22.4723958 36.2863854,22.5401042 36.4366979,22.5644792 L43.7234688,23.7426042 L43.8507604,23.7534375 L44.0836771,23.7182292 L45.4906563,24.2490625 C44.9611771,24.7907292 44.2502396,25.0913542 43.5244063,24.9721875 Z M52.6866979,24.626875 C53.1484688,24.8015625 53.0590938,25.13875 52.8546146,25.6777083 C52.6866979,26.1232292 52.5621146,26.3940625 52.2601354,26.3940625 L52.0366979,26.3480208 L43.5054479,23.1223958 C43.0450313,22.9490625 43.1438854,22.579375 43.3361771,22.0742708 C43.5054479,21.6273958 43.6286771,21.3552083 43.9320104,21.3552083 L44.1540938,21.4026042 L52.6866979,24.626875 Z" id="Fill-80" fill="#FFFFFF"></path>
                    <path d="M44.5180938,56.2463958 C44.3217396,55.9918125 44.0942396,55.7697292 43.8437188,55.5882708 C42.3460104,54.4995208 40.2985104,54.8516042 39.2314271,56.3195208 C38.4906979,57.3419167 38.2523646,58.1137917 38.0424688,58.7935833 C37.8583021,59.3867083 37.6836146,59.9473333 37.1893438,60.6284792 C36.8399688,61.1078542 36.1710104,61.22025 35.6848646,60.8695208 C35.2054896,60.5201458 35.0985104,59.8444167 35.4451771,59.3623333 C35.9421563,58.6825417 36.4201771,58.3426458 36.9279896,57.9851458 C37.5102813,57.5734792 38.1684063,57.1076458 38.9091354,56.0866042 C39.4277813,55.3729583 39.6363229,54.4995208 39.4995521,53.6301458 C39.3600729,52.7567083 38.8901771,51.9916042 38.1765313,51.4743125 L37.9070521,51.2982708 C37.7188229,51.1872292 37.5197604,51.0965 37.3152813,51.0247292 C35.6997604,50.4695208 34.0178854,50.1851458 32.3116354,50.1851458 C30.6080938,50.1851458 28.9275729,50.4681667 27.3120521,51.0247292 C27.0033021,51.1317083 26.7135104,51.2793125 26.4480938,51.4716042 C25.7344479,51.9916042 25.2645521,52.7567083 25.1264271,53.6287917 C24.9869479,54.4995208 25.1968438,55.3716042 25.7141354,56.0866042 C26.4562188,57.1076458 27.1156979,57.572125 27.6979896,57.9851458 C28.2044479,58.3426458 28.6838229,58.6811875 29.1780938,59.3623333 C29.5274688,59.8444167 29.4204896,60.5201458 28.9384063,60.8668125 C28.4712188,61.2080625 27.7738229,61.0997292 27.4339271,60.6284792 C26.9410104,59.9473333 26.7649688,59.3853542 26.5821563,58.7935833 C26.3709063,58.1124375 26.1325729,57.3419167 25.3918438,56.3195208 C25.1223646,55.947125 24.7851771,55.6410833 24.3897604,55.4095208 C23.2590313,54.7473333 21.8412188,54.8163958 20.7795521,55.5869167 C20.5249688,55.7710833 20.2988229,55.9931667 20.1038229,56.24775 L20.0821563,56.2788958 C20.2365313,56.4332708 20.3895521,56.589 20.5425729,56.7393125 L20.6129896,56.63775 C20.7714271,56.4332708 20.9528854,56.255875 21.1573646,56.1069167 C22.0131979,55.4853542 23.1534063,55.4298333 24.0647604,55.9647292 C24.3829896,56.15025 24.6565313,56.3967083 24.8718438,56.6973333 C25.5516354,57.6330625 25.7628854,58.319625 25.9687188,58.9818125 C26.1610104,59.6020208 26.3560104,60.2384792 26.9139271,61.0076458 C27.0547604,61.1999375 27.2294479,61.3597292 27.4339271,61.4788958 C27.9078854,61.7565 28.4739271,61.7768125 28.9668438,61.5709792 C29.1699688,61.4003542 29.3866354,61.244625 29.6141354,61.1051458 C30.1138229,60.5147292 30.1720521,59.6385833 29.6980938,58.985875 C29.1415313,58.2194167 28.5944479,57.832125 28.0690313,57.4597292 C27.4989271,57.0588958 26.9139271,56.6445208 26.2354896,55.7087917 C25.8184063,55.134625 25.6477813,54.4304583 25.7588229,53.729 C25.8725729,53.0261875 26.2503854,52.4086875 26.8245521,51.9929583 C27.0371563,51.8385833 27.2727813,51.7167083 27.5219479,51.6313958 C29.0684063,51.0992083 30.6798646,50.8297292 32.3116354,50.828375 C33.9447604,50.828375 35.5589271,51.1005625 37.1053854,51.6341042 C37.3518438,51.7167083 37.5834063,51.8372292 37.8000729,51.9943125 C38.3755938,52.4113958 38.7534063,53.0275417 38.8644479,53.729 C38.9754896,54.4304583 38.8075729,55.134625 38.3891354,55.7101458 C37.7106979,56.6445208 37.1243438,57.0588958 36.5569479,57.4597292 C36.0288229,57.8334792 35.4830938,58.2194167 34.9265313,58.9845208 C34.4512188,59.6412917 34.5108021,60.5187917 35.0131979,61.1092083 C35.2366354,61.2473333 35.4465313,61.4044167 35.6469479,61.5736875 C36.3768438,61.8837917 37.2299688,61.6657708 37.7079896,61.0076458 C38.2659063,60.2384792 38.4649688,59.6020208 38.6545521,58.9818125 C38.8617396,58.319625 39.0729896,57.6330625 39.7514271,56.6973333 C40.6113229,55.5137917 42.2552813,55.2253542 43.4672604,56.1082708 C43.6690313,56.2545208 43.8531979,56.4332708 44.0089271,56.6363958 L44.0806979,56.7393125 C44.2337188,56.589 44.3867396,56.4332708 44.5411146,56.2788958 L44.5180938,56.2463958" id="Fill-82" fill="#FFFFFF"></path>
                    <path d="M24.4317396,59.0340833 C24.7905938,59.5053333 25.1480938,60.242 25.1480938,60.242 C25.0248646,59.9129375 24.9354896,59.6109583 24.8542396,59.3387708 L24.8542396,59.3360625 L24.8542396,59.3387708 C24.6930938,58.5547083 24.3870521,57.7977292 23.8724688,57.1341875 C23.5799688,56.81325 23.1506979,56.6196042 22.7092396,56.6060625 C22.2610104,56.5898125 21.8195521,56.7590833 21.4850729,57.0759583 L21.2277813,57.39825 C21.8005938,57.9439792 22.3693438,58.4653333 22.9272604,58.9528333 C23.0640313,57.9236667 24.0823646,58.576375 24.4317396,59.0340833" id="Fill-84" fill="#FFFFFF"></path>
                    <path d="M43.1228958,57.057 C42.791125,56.7468958 42.3469583,56.5749167 41.897375,56.5925208 C41.4613333,56.6087708 41.028,56.7997083 40.7341458,57.1274167 C40.2249792,57.7855417 39.9189375,58.5465833 39.7605,59.3292917 L39.7659167,59.31575 L39.7618542,59.3279375 C39.6806042,59.6041875 39.5912292,59.9061667 39.4707083,60.233875 C39.4707083,60.233875 39.8241458,59.4958542 40.183,59.02325 C40.5350833,58.5628333 41.56425,57.9033542 41.6888333,58.95825 C42.2481042,58.4693958 42.8182083,57.9466875 43.392375,57.4009583 C43.3178958,57.276375 43.229875,57.1572083 43.1228958,57.057" id="Fill-86" fill="#FFFFFF"></path>
                    <path d="M29.2016563,62.4050104 C29.6038438,62.0028229 30.2565521,62.0028229 30.6600938,62.4050104 C31.0609271,62.8085521 31.0609271,63.4599063 30.6587396,63.8593854 C30.4596771,64.0611562 30.1983229,64.1600104 29.9383229,64.1627187 C30.5355104,64.5310521 31.0284271,64.8167812 31.4157188,65.0334479 C31.5890521,64.7111562 31.9181146,64.4836562 32.3108229,64.4836562 C32.7035313,64.4836562 33.0325938,64.7111562 33.2072813,65.0334479 C33.5945729,64.8167812 34.0861354,64.5310521 34.6833229,64.1627187 C34.4233229,64.1613646 34.1619688,64.0625104 33.9642604,63.8620937 C33.5607188,63.4599063 33.5620729,62.8085521 33.9629063,62.4050104 C34.3664479,62.0028229 35.0178021,62.0014688 35.4226979,62.4050104 C35.7368646,62.7205312 35.7964479,63.1877188 35.6149896,63.5695937 C35.9007188,63.3854271 36.1986354,63.1850104 36.5114479,62.9710521 C36.0930104,62.2804271 35.5107188,61.6886562 34.7943646,61.2675104 C34.0468646,60.8287604 33.1869688,60.5958438 32.3121771,60.5958438 C30.9972813,60.5958438 29.7636354,61.1077188 28.8333229,62.0380312 C28.5503021,62.3210521 28.3200938,62.6419896 28.1156146,62.9764687 C28.4257188,63.1863646 28.7236354,63.3854271 29.0066563,63.5695937 C28.8265521,63.1863646 28.8861354,62.7205312 29.2016563,62.4050104 M32.3108229,61.1171979 C32.8809271,61.1171979 33.3413438,61.5803229 33.3426979,62.1490729 C33.3426979,62.7151146 32.8782188,63.1782396 32.3108229,63.1768854 C31.7393646,63.1768854 31.2803021,62.7164687 31.2803021,62.1477188 C31.2816563,61.5789688 31.7420729,61.1185521 32.3108229,61.1171979" id="Fill-88" fill="#FFFFFF"></path>
                    <path d="M35.1830104,60.6077604 C34.3149896,60.0999479 33.3223854,59.8318229 32.3121771,59.8318229 C30.7941563,59.8318229 29.3655104,60.4222396 28.2916563,61.4947396 C27.9761354,61.8116146 27.7066563,62.1596354 27.4778021,62.5306771 C27.6199896,62.6308854 27.7608229,62.7283854 27.8989479,62.8245312 C28.8075938,61.3363021 30.4407188,60.3409896 32.3108229,60.3423438 C33.2655104,60.3423438 34.1579063,60.5996354 34.9230104,61.0492188 C35.6623854,61.4825521 36.2785313,62.0959896 36.7240521,62.8245312 C36.8608229,62.7297396 36.9975938,62.6335938 37.1384271,62.5360937 C36.6576979,61.7574479 35.9955104,61.0857813 35.1830104,60.6077604" id="Fill-90" fill="#FFFFFF"></path>
                    <g id="Group-94" transform="translate(4.062500, 0.888604)">
                        <mask id="mask-4" fill="white">
                            <use xlink:href="#path-3"></use>
                        </mask>
                        <g id="Clip-93"></g>
                        <path d="M54.6121875,1.27508333 L54.6121875,21.6376875 C54.6121875,51.7191458 28.2492708,64.6257083 28.2492708,64.6257083 C28.2492708,64.6257083 1.885,51.7191458 1.885,21.6376875 L1.885,1.27508333 L54.6121875,1.27508333 Z M55.4233333,0.465291667 L54.6121875,0.465291667 L1.885,0.465291667 L1.0765625,0.465291667 L1.0765625,1.27508333 L1.0765625,21.6376875 C1.0765625,28.6157083 2.48625,35.2578958 5.26770833,41.3800833 C7.49125,46.2753958 10.5909375,50.8470625 14.47875,54.9677917 C21.0938542,61.982375 27.6182292,65.2188333 27.893125,65.3528958 L28.2492708,65.5275833 L28.6040625,65.3528958 C28.8789583,65.2188333 35.4033333,61.982375 42.0184375,54.9677917 C45.9076042,50.8470625 49.0059375,46.2753958 51.2294792,41.3800833 C54.0122917,35.2578958 55.4233333,28.6157083 55.4233333,21.6376875 L55.4233333,1.27508333 L55.4233333,0.465291667 Z" id="Fill-92" fill="#FFFFFF" mask="url(#mask-4)"></path>
                    </g>
                </g>
            </g>
        </g>
    </g>
</svg>